<ttFont>
          <CharString index="0">
            -3 -12 -36 -3 -36 -100 callgsubr
            return
          </CharString>
          <CharString index="1">
            rmoveto
            -17 -13 -8 -26 -12 hvcurveto
            -61 -134 16 -12 87 115 89 -115 16 12 -61 134 rlineto
            26 -12 -15 8 -17 hhcurveto
            endchar
          </CharString>
          <CharString index="2">
            -11 callgsubr
            hintmask 10010011
            427 438 rmoveto
            hintmask 10100011
            -85 callsubr
            hintmask 10010011
            311 vlineto
            hintmask 10100011
            -88 callgsubr
            hintmask 01010011
            -80 callsubr
            hintmask 00001100
            return
          </CharString>
          <CharString index="3">
            208 -121 119 -166 -165 -121 -119 -208 vhcurveto
            85 hmoveto
            192 91 109 110 110 92 -109 -192 -192 -92 -109 -110 -110 -91 109 192 vhcurveto
            return
          </CharString>
          <CharString index="4">
            -18 47 -96 callsubr
            return
          </CharString>
          <CharString index="5">
            hlineto
            -97 callsubr
            return
          </CharString>
          <CharString index="6">
            -120 57 -68 78 78 57 68 120 119 -57 67 -78 -78 -57 -67 -119 vhcurveto
            60 hmoveto
            106 34 61 41 40 35 -61 -106 -107 -35 -61 -40 -41 -34 61 107 vhcurveto
            return
          </CharString>
          <CharString index="7">
            -105 callgsubr
            endchar
          </CharString>
          <CharString index="8">
            -37 callsubr
            hintmask 11100101
            -101 callgsubr
            hintmask 11100011
            -80 callgsubr
            vhcurveto
            -41 -394 rmoveto
            hintmask 11100101
            -67 callgsubr
            hintmask 00011000
            return
          </CharString>
          <CharString index="9">
            -91 -83 -145 -145 90 -83 112 -84 callgsubr
            -73 -52 75 129 return
          </CharString>
          <CharString index="10">
            -8 -6 6 8 hvcurveto
            return
          </CharString>
          <CharString index="11">
            hlineto
            8 6 -6 -8 hvcurveto
            return
          </CharString>
          <CharString index="12">
            576 hmoveto
            18 -37 vlineto
            -11 -5 6 8 -3 hvcurveto
            -220 598 rlineto
            -34 hlineto
            -220 -598 rlineto
            -8 -3 -5 -45 callgsubr
            70 193 rlineto
            220 hlineto
            70 -193 rlineto
            -65 -18 hlineto
            -114 512 rmoveto
            99 -273 rlineto
            -199 hlineto
            return
          </CharString>
          <CharString index="13">
            -8 -6 -6 -8 vhcurveto
            return
          </CharString>
          <CharString index="14">
            -91 callgsubr
            endchar
          </CharString>
          <CharString index="15">
            -50 callgsubr
            -224 273 -85 callgsubr
            273 210 -60 callgsubr
            -102 rlineto
            23 47 hlineto
            return
          </CharString>
          <CharString index="16">
            40 216 rmoveto
            -145 85 -83 117 117 86 83 145 145 -86 83 -117 -117 -85 -83 -145 vhcurveto
            76 hmoveto
            131 56 75 70 70 57 -75 -131 -131 -57 -75 -70 -70 -56 75 131 vhcurveto
            return
          </CharString>
          <CharString index="17">
            -92 callgsubr
            -18 return
          </CharString>
          <CharString index="18">
            vlineto
            -80 34 -34 46 44 33 -47 callgsubr
            vhcurveto
            -59 callgsubr
            -29 -18 -18 -17 -15 -15 9 45 vhcurveto
            return
          </CharString>
          <CharString index="19">
            245 rmoveto
            -94 callsubr
            -64 -18 208 18 -58 -102 callsubr
            260 vlineto
            36 4 27 4 15 vhcurveto
            -18 -8 -42 -11 -33 -5 -62 -9 rcurveline
            1 -19 75 4 rlineto
            10 3 -6 -7 hvcurveto
            return
          </CharString>
          <CharString index="20">
            41 393 rmoveto
            -101 callsubr
            367 -213 rmoveto
            -101 callsubr
            return
          </CharString>
          <CharString index="21">
            64 21 -21 211 28 391 -54 callsubr
            hintmask 11100000
            -95 callsubr
            hintmask 00011000
            return
          </CharString>
          <CharString index="22">
            -107 callsubr
            -123 -61 callsubr
            return
          </CharString>
          <CharString index="23">
            16 -12 134 134 rlineto
            33 -20 13 -16 -16 -12 -5 -29 -15 vhcurveto
            return
          </CharString>
          <CharString index="24">
            -15 callsubr
            -116 -316 -115 316 rlineto
            50 18 -170 2 callsubr
            8 3 -14 callgsubr
            return
          </CharString>
          <CharString index="25">
            386 630 rmoveto
            -18 50 vlineto
            -137 -332 -153 332 rlineto
            50 18 -191 -18 37 -28 callgsubr
            170 -368 rlineto
            -198 vlineto
            -94 callsubr
            -72 -18 254 18 -72 -102 callsubr
            197 vlineto
            153 369 -41 callsubr
            hlineto
            return
          </CharString>
          <CharString index="26">
            -57 callsubr
            -145 hmoveto
            -100 callsubr
          </CharString>
          <CharString index="27">
            -50 callsubr
            49 -95 callgsubr
            return
          </CharString>
          <CharString index="28">
            rmoveto
            -94 callgsubr
            return
          </CharString>
          <CharString index="29">
            -49 callgsubr
            -36 -60 callsubr
          </CharString>
          <CharString index="30">
            -22 callsubr
            -5 -7 hvcurveto
            return
          </CharString>
          <CharString index="31">
            26 12 30 35 31 vhcurveto
            -11 14 rlineto
            -67 -37 -42 -76 -52 vvcurveto
            -34 16 -26 39 30 23 26 31 1 vhcurveto
            -20 14 -16 24 29 vvcurveto
            return
          </CharString>
          <CharString index="32">
            -81 callgsubr
            -568 vlineto
            -92 callgsubr
            return
          </CharString>
          <CharString index="33">
            7 7 5 7 vhcurveto
            47 return
          </CharString>
          <CharString index="34">
            -8 -80 rlineto
            46 -2 27 -22 -37 vvcurveto
            -33 -19 -21 -25 -27 -13 24 27 9 1 9 3 8 vhcurveto
            3 -5 -8 1 -8 hhcurveto
            -23 -10 -13 -19 -46 43 -26 37 68 30 44 36 56 -36 30 -60 4 hvcurveto
            4 48 rlineto
            endchar
          </CharString>
          <CharString index="35">
            388 rmoveto
            3 13 12 1 8 hhcurveto
            53 41 -27 -56 -43 -25 -41 -48 -31 -16 22 26 12 3 14 6 12 hvcurveto
            6 -7 -13 6 -15 hhcurveto
            -20 -8 -16 -21 -43 31 -38 70 88 44 54 57 41 -32 40 -62 11 hvcurveto
            return
          </CharString>
          <CharString index="36">
            -8 -1 -5 -3 -7 hhcurveto
            -130 hlineto
            82 95 rlineto
            46 54 35 40 47 vvcurveto
            43 -32 42 -82 -72 -32 -38 -42 -21 9 -16 20 15 14 5 5 6 vhcurveto
            -6 12 -3 14 14 vvcurveto
            25 16 23 34 vhcurveto
            return
          </CharString>
          <CharString index="37">
            -310 -104 -35 callgsubr
            78 73 vstem
            78 -24 rmoveto
            -100 callsubr
          </CharString>
          <CharString index="38">
            1 11 1 16 13 vvcurveto
            122 -60 59 -89 return
          </CharString>
          <CharString index="39">
            -65 callgsubr
            hstemhm
            return
          </CharString>
          <CharString index="40">
            13 70 21 52 29 vvcurveto
            29 -18 15 -23 -23 -18 -15 -29 -29 20 -52 13 -70 vhcurveto
            10 -70 -34 18 -25 -23 callgsubr
            21 43 14 10 41 hvcurveto
            return
          </CharString>
          <CharString index="41">
            -26 -42 44 -92 hhcurveto
            -167 -120 -120 -208 -207 123 -119 164 return
          </CharString>
          <CharString index="42">
            -20 -41 47 -76 hhcurveto
            -130 -60 -89 -89 -61 33 -61 75 -33 hvcurveto
            119 -53 rlineto
            63 -28 27 -46 -44 vvcurveto
            -61 -44 -60 -86 -88 -77 41 109 -13 vhcurveto
            -18 hlineto
            return
          </CharString>
          <CharString index="43">
            73 vstem
            113 567 rmoveto
            -76 callsubr
            return
          </CharString>
          <CharString index="44">
            rmoveto
            -37 -20 -23 -9 -25 -39 -40 26 -32 hhcurveto
            -29 -37 -21 -78 -18 hvcurveto
            15 -7 rlineto
            36 20 23 9 25 38 40 -26 33 hhcurveto
            29 36 21 79 19 hvcurveto
            endchar
          </CharString>
          <CharString index="45">
            rmoveto
            -160 171 -16 -14 94 -163 -94 -163 16 -14 160 171 rlineto
            return
          </CharString>
          <CharString index="46">
            vlineto
            -168 -53 -82 -67 -47 -35 29 71 vhcurveto
            return
          </CharString>
          <CharString index="47">
            hlineto
            -249 -722 rlineto
            endchar
          </CharString>
          <CharString index="48">
            -107 callsubr
            -370 -40 callsubr
            -47 -18 180 18 -33 -102 callsubr
            return
          </CharString>
          <CharString index="49">
            rmoveto
            53 -392 -53 vlineto
            return
          </CharString>
          <CharString index="50">
            rmoveto
            -105 callgsubr
            return
          </CharString>
          <CharString index="51" raw="1">
            13a3200a 0b  
          </CharString>
          <CharString index="52">
            -73 callgsubr
            -204 -18 47 hlineto
            return
          </CharString>
          <CharString index="53">
            -20 77 -68 callsubr
            return
          </CharString>
          <CharString index="54">
            465 -21 224 -20 hstem
            84 444 rmoveto
            -61 callgsubr
            return
          </CharString>
          <CharString index="55">
            -18 callgsubr
            216 237 -62 callsubr
            return
          </CharString>
          <CharString index="56">
            -53 callgsubr
            26 -20 return
          </CharString>
          <CharString index="57">
            3 12 36 3 36 hhcurveto
            return
          </CharString>
          <CharString index="58">
            -3 -12 -52 callgsubr
            hhcurveto
            return
          </CharString>
          <CharString index="59">
            -58 callsubr
            endchar
          </CharString>
          <CharString index="60">
            462 450 rmoveto
            55 vlineto
            -392 -182 rlineto
            -53 vlineto
            392 -182 rlineto
            55 vlineto
            -335 153 rlineto
            return
          </CharString>
          <CharString index="61">
            -117 -85 108 189 188 82 111 120 return
          </CharString>
          <CharString index="62">
            39 -6 -51 callsubr
            return
          </CharString>
          <CharString index="63">
            -5 -18 -37 -4 -56 hhcurveto
            return
          </CharString>
          <CharString index="64">
            70 143 rmoveto
            -55 vlineto
            392 182 rlineto
            53 vlineto
            -392 182 rlineto
            -55 vlineto
            334 -154 rlineto
            return
          </CharString>
          <CharString index="65">
            -17 callsubr
            -17 rlineto
            -15 -1 -6 -6 -9 hhcurveto
            return
          </CharString>
          <CharString index="66">
            rlineto
            8 3 5 6 11 hhcurveto
            37 18 return
          </CharString>
          <CharString index="67">
            vlineto
            -36 callsubr
            return
          </CharString>
          <CharString index="68">
            -37 callgsubr
            -28 -32 8 21 -32 hvcurveto
            135 vlineto
            return
          </CharString>
          <CharString index="69">
            rmoveto
            -53 -169 -169 -53 169 -170 53 170 170 53 -170 hlineto
            return
          </CharString>
          <CharString index="70">
            hstemhm
            40 68 -36 69 146 72 return
          </CharString>
          <CharString index="71">
            -7 -15 callgsubr
            return
          </CharString>
          <CharString index="72">
            -21 630 -20 return
          </CharString>
          <CharString index="73">
            rmoveto
            35 23 -28 -46 -28 -14 -47 -31 -37 hvcurveto
            -136 -161 rlineto
            172 hlineto
            return
          </CharString>
          <CharString index="74">
            -103 callgsubr
            endchar
          </CharString>
          <CharString index="75">
            35 28 -4 -4 15 hvcurveto
            -2 14 -5 39 35 vvcurveto
            33 -20 vlineto
            -7 -57 rlineto
            return
          </CharString>
          <CharString index="76">
            -58 callsubr
            392 -170 -48 callsubr
          </CharString>
          <CharString index="77">
            -7 5 7 hvcurveto
            return
          </CharString>
          <CharString index="78">
            489 -65 callgsubr
            hstem
            return
          </CharString>
          <CharString index="79">
            -1 -5 -6 -8 hhcurveto
            return
          </CharString>
          <CharString index="80" raw="1">
            f7608e1d 0b  
          </CharString>
          <CharString index="81">
            3 12 24 3 36 hhcurveto
            47 18 -41 hlineto
            -8 -3 3 5 -3 hvcurveto
            return
          </CharString>
          <CharString index="82">
            -12 29 4 -21 613 29 -6 -20 return
          </CharString>
          <CharString index="83">
            -43 -12 33 187 21 191 24 return
          </CharString>
          <CharString index="84">
            0 28 -16 -21 return
          </CharString>
          <CharString index="85">
            hlineto
            7 7 return
          </CharString>
          <CharString index="86">
            -49 callsubr
            -15 -18 hlineto
            21 6 -27 -25 hvcurveto
            return
          </CharString>
          <CharString index="87">
            211 40 hstem
            30 211 rmoveto
            return
          </CharString>
          <CharString index="88">
            55 5 41 4 18 vhcurveto
            return
          </CharString>
          <CharString index="89">
            -92 -21 748 -20 hstem
            return
          </CharString>
          <CharString index="90">
            173 -19 vlineto
            -1 return
          </CharString>
          <CharString index="91">
            21 -53 callgsubr
            return
          </CharString>
          <CharString index="92">
            rmoveto
            -18 51 vlineto
            return
          </CharString>
          <CharString index="93">
            -167 19 vlineto
            1 14 rlineto
            15 1 6 6 9 hhcurveto
            return
          </CharString>
          <CharString index="94">
            -35 callgsubr
            77 73 72 73 vstem
            222 return
          </CharString>
          <CharString index="95">
            464 -35 callgsubr
            return
          </CharString>
          <CharString index="96">
            -27 callgsubr
            47 18 return
          </CharString>
          <CharString index="97">
            -7 9 17 -8 21 hhcurveto
            24 12 25 30 66 return
          </CharString>
          <CharString index="98">
            194 endchar
          </CharString>
          <CharString index="99">
            -19 callgsubr
            vstem
            40 return
          </CharString>
          <CharString index="100">
            -239 -92 -21 743 -20 26 -20 hstemhm
            return
          </CharString>
          <CharString index="101">
            55 5 56 4 18 vhcurveto
            return
          </CharString>
          <CharString index="102">
            200 endchar
          </CharString>
          <CharString index="103">
            -195 -21 204 25 393 38 return
          </CharString>
          <CharString index="104">
            -18 5 -17 hhcurveto
            -24 -11 -25 -29 return
          </CharString>
          <CharString index="105">
            277 -53 -21 95 -21 88 24 return
          </CharString>
          <CharString index="106">
            vlineto
            -94 callsubr
            -16 -14 return
          </CharString>
          <CharString index="107">
            3 callgsubr
            -7 -30 callsubr
            return
          </CharString>
          <CharString index="108">
            40 76 253 76 return
          </CharString>
          <CharString index="109">
            -18 37 hlineto
            return
          </CharString>
          <CharString index="110">
            5 -6 -8 return
          </CharString>
        <CharString name=".notdef">
          -252 endchar
        </CharString>
        <CharString name="A">
          64 21 -21 211 28 391 -20 hstem
          -95 callsubr
          endchar
        </CharString>
        <CharString name="AE">
          318 -23 callsubr
          285 28 298 28 9 -20 hstemhm
          399 82 hintmask 10110100
          338 2 callgsubr
          hintmask 01110100
          -93 callgsubr
          hintmask 10110100
          -50 callgsubr
          -224 248 -85 callgsubr
          298 210 -46 callgsubr
          hintmask 10101100
          -6 callsubr
          hintmask 10110100
          -44 callsubr
          -362 -18 34 hlineto
          7 3 -4 -4 -5 -2 -4 -2 -4 hvcurveto
          -301 -559 rlineto
          -8 -4 -4 -45 callgsubr
          137 258 rlineto
          200 -244 hlineto
          -92 callgsubr
          hlineto
          35 584 rmoveto
          26 -298 -185 hlineto
          endchar
        </CharString>
        <CharString name="Aacute">
          64 208 198 65 -9 callsubr
        </CharString>
        <CharString name="Acircumflex">
          -86 callsubr
          125 607 -106 callsubr
        </CharString>
        <CharString name="Adieresis">
          64 149 198 65 -5 callsubr
        </CharString>
        <CharString name="Agrave">
          -86 callsubr
          130 573 -99 callgsubr
        </CharString>
        <CharString name="Aring">
          64 154 198 65 202 endchar
        </CharString>
        <CharString name="Atilde">
          64 144 198 65 196 endchar
        </CharString>
        <CharString name="B">
          9 0 28 293 25 256 28 hstemhm
          96 82 193 80 -35 35 -35 80 hintmask 11110010
          35 hmoveto
          259 hlineto
          108 94 66 109 89 -62 57 -80 18 hvcurveto
          hintmask 11110100
          57 25 40 50 69 vvcurveto
          89 -85 58 -97 vhcurveto
          -234 -18 -81 callgsubr
          -570 -40 callsubr
          -47 hlineto
          254 303 rmoveto
          84 43 -73 -73 -73 -43 -74 -84 hvcurveto
          -111 293 hlineto
          70 281 rmoveto
          hintmask 11111000
          90 33 -60 -59 -67 -32 -70 -85 hvcurveto
          -76 256 hlineto
          endchar
        </CharString>
        <CharString name="C">
          61 -25 callsubr
          hstemhm
          35 85 hintmask 01101000
          -2 callgsubr
          hintmask 10101000
          -51 callgsubr
          hintmask 10011000
          -42 callsubr
          hintmask 10101000
          -57 callgsubr
          endchar
        </CharString>
        <CharString name="Ccedilla">
          61 -218 23 183 29 -17 -20 41 -21 613 29 -6 -20 hstemhm
          35 85 233 44 hintmask 00011010
          -2 callgsubr
          hintmask 01001010
          -51 callgsubr
          hintmask 01000110
          -42 callsubr
          hintmask 01001010
          -57 callgsubr
          hintmask 00011010
          hintmask 10100001
          -210 -14 rmoveto
          -73 callsubr
        </CharString>
        <CharString name="D">
          109 0 28 574 28 hstem
          96 82 313 85 vstem
          35 612 rmoveto
          -81 callgsubr
          -570 -40 callsubr
          -47 -18 254 hlineto
          166 121 115 200 200 -121 115 -166 hvcurveto
          -254 hlineto
          254 -28 rmoveto
          110 92 -104 -183 -183 -92 -104 -110 hvcurveto
          -111 574 hlineto
          endchar
        </CharString>
        <CharString name="Delta">
          151 0 58 642 -20 hstem
          296 700 rmoveto
          -248 -700 rlineto
          557 hlineto
          -249 700 rlineto
          -51 -81 rmoveto
          197 -561 rlineto
          -389 hlineto
          endchar
        </CharString>
        <CharString name="E">
          15 -54 callgsubr
          hstemhm
          96 82 hintmask 10110100
          35 2 callgsubr
          hintmask 01110100
          -93 callgsubr
          hintmask 10110100
          -92 callsubr
          hintmask 10101100
          -19 callsubr
          hintmask 10110100
          -71 callgsubr
          endchar
        </CharString>
        <CharString name="Eacute">
          15 202 198 69 -9 callsubr
        </CharString>
        <CharString name="Ecircumflex">
          -98 callgsubr
          222 828 -106 callsubr
        </CharString>
        <CharString name="Edieresis">
          15 124 198 69 -5 callsubr
        </CharString>
        <CharString name="Egrave">
          -98 callgsubr
          227 794 -99 callgsubr
        </CharString>
        <CharString name="Eth">
          109 0 84 68 177 endchar
        </CharString>
        <CharString name="Euro">
          -12 28 230 30 36 30 209 28 hstemhm
          54 72 231 69 -69 81 hintmask 11111100
          352 276 rmoveto
          -226 hlineto
          12 0 12 1 12 vhcurveto
          231 hlineto
          9 30 rlineto
          -236 hlineto
          111 15 51 98 83 hhcurveto
          -4 callgsubr
          hvcurveto
          -10 callsubr
          -44 59 -102 -123 -76 -111 -126 -21 hvcurveto
          -46 hlineto
          -9 -30 rlineto
          51 hlineto
          -1 -12 -1 -12 -12 vvcurveto
          -59 hlineto
          -9 -30 rlineto
          68 hlineto
          -128 6 56 -130 152 hhcurveto
          hintmask 11111010
          117 53 67 70 25 -11 18 -20 -21 -18 -8 -7 -9 hvcurveto
          5 -14 3 -15 -14 vvcurveto
          -48 -36 -46 -64 -109 -28 120 110 -4 vhcurveto
          217 hlineto
          endchar
        </CharString>
        <CharString name="F">
          -35 21 -21 301 -6 callgsubr
          hstemhm
          96 82 hintmask 11101000
          35 612 rmoveto
          -77 callgsubr
          244 18 -87 -102 callsubr
          269 197 vlineto
          6 5 -7 -7 -72 callgsubr
          rlineto
          -7 -1 -5 -7 -6 hhcurveto
          -197 273 204 -60 callgsubr
          -102 rlineto
          23 47 hlineto
          hintmask 11011000
          -19 callsubr
          hintmask 11101000
          -44 callsubr
          -311 hlineto
          endchar
        </CharString>
        <CharString name="G">
          89 -12 29 596 29 -6 -20 hstemhm
          35 85 348 82 hintmask 11011000
          322 613 rmoveto
          -25 callgsubr
          hintmask 10111000
          -42 callsubr
          hintmask 11011000
          -66 callsubr
          133 95 85 119 hvcurveto
          36 vlineto
          7 7 5 7 vhcurveto
          27 18 -204 -18 67 -77 callsubr
          -40 vlineto
          -105 -36 -66 -110 -46 callsubr
          vhcurveto
          endchar
        </CharString>
        <CharString name="H">
          146 21 -21 301 28 301 -20 hstem
          96 82 292 82 vstem
          470 32 -86 callgsubr
          204 18 -47 hlineto
          -82 callgsubr
          8 6 -6 -8 hvcurveto
          -269 -292 269 -1 callgsubr
          -204 -18 -77 callgsubr
          204 -95 callgsubr
          269 292 vlineto
          endchar
        </CharString>
        <CharString name="I">
          -228 -44 callgsubr
          96 82 vstem
          96 32 -86 callgsubr
          204 18 -47 hlineto
          -82 callgsubr
          7 7 -5 -7 hvcurveto
          endchar
        </CharString>
        <CharString name="Iacute">
          -228 62 198 73 -9 callsubr
        </CharString>
        <CharString name="Icircumflex">
          -75 callgsubr
          40 246 -106 callsubr
        </CharString>
        <CharString name="Idieresis">
          -228 3 198 73 -5 callsubr
        </CharString>
        <CharString name="Igrave">
          -75 callgsubr
          45 212 -99 callgsubr
        </CharString>
        <CharString name="J">
          -233 -159 24 144 -21 642 -20 hstem
          -75 70 101 82 vstem
          178 598 rmoveto
          -11 callsubr
          -204 -18 -81 callgsubr
          -645 vlineto
          -65 -24 -25 -33 -30 -14 22 24 20 5 23 11 19 vhcurveto
          10 -12 -19 5 -18 hhcurveto
          -25 -12 -26 -30 -41 25 -50 80 97 51 98 188 hvcurveto
          endchar
        </CharString>
        <CharString name="K">
          37 -12 30 3 -35 callsubr
          hstemhm
          96 82 hintmask 10110000
          96 32 rmoveto
          -92 callgsubr
          hlineto
          hintmask 01110000
          -18 204 vlineto
          hintmask 10110000
          18 -47 vlineto
          -82 callgsubr
          7 7 -5 -7 hvcurveto
          316 -425 rmoveto
          -20 79 -40 71 -112 2 224 271 rcurveline
          12 10 3 2 15 hhcurveto
          27 18 -136 -18 50 hlineto
          -236 -287 rlineto
          -22 vlineto
          72 37 -28 -88 23 hvcurveto
          23 -92 rlineto
          -77 19 42 -30 49 hhcurveto
          45 32 -47 callgsubr
          hvcurveto
          -59 callgsubr
          hintmask 01110000
          -29 -14 -18 -22 -24 -14 21 41 -10 vhcurveto
          endchar
        </CharString>
        <CharString name="L">
          -50 -23 callsubr
          639 -20 hstemhm
          96 82 hintmask 10110000
          35 hmoveto
          306 hlineto
          hintmask 01110000
          -93 callgsubr
          hintmask 10110000
          -66 callgsubr
        </CharString>
        <CharString name="Lslash">
          -50 -23 callsubr
          250 -21 192 -20 238 -20 hstemhm
          96 82 hintmask 00110000
          18 220 rmoveto
          308 157 -18 35 -308 -157 rlineto
          hintmask 10001100
          35 -255 rmoveto
          306 hlineto
          hintmask 01001100
          -93 callgsubr
          hintmask 10001100
          -66 callgsubr
        </CharString>
        <CharString name="M">
          258 -44 callgsubr
          96 34 452 82 vstem
          521 hmoveto
          204 0 callsubr
          568 -1 callgsubr
          -143 hlineto
          -200 -517 -204 517 rlineto
          -143 -18 -77 callgsubr
          156 -95 callgsubr
          494 vlineto
          209 -526 rlineto
          34 hlineto
          209 541 rlineto
          -511 -40 callsubr
          -47 hlineto
          endchar
        </CharString>
        <CharString name="N">
          127 -44 callgsubr
          96 34 374 34 vstem
          506 hmoveto
          32 600 hlineto
          -73 callgsubr
          -156 -103 callsubr
          -444 vlineto
          -322 476 rlineto
          -147 -18 -77 callgsubr
          156 -95 callgsubr
          526 vlineto
          endchar
        </CharString>
        <CharString name="Ntilde">
          127 192 198 78 196 endchar
        </CharString>
        <CharString name="O">
          141 -12 26 602 26 hstem
          -17 callgsubr
          vstem
          -104 callgsubr
          endchar
        </CharString>
        <CharString name="OE">
          297 -54 callgsubr
          hstemhm
          35 85 258 82 hintmask 10110110
          661 301 rmoveto
          -74 callgsubr
          -1 -7 -5 -6 -6 -1 rlinecurve
          -203 273 210 -46 callgsubr
          hintmask 10101110
          -6 callsubr
          hintmask 10110110
          -44 callsubr
          -313 hlineto
          -165 -121 -115 -200 -200 121 -115 165 hvcurveto
          327 hlineto
          hintmask 01110110
          -93 callgsubr
          hintmask 10110110
          -50 callgsubr
          -224 273 hlineto
          -139 -273 rmoveto
          -110 -91 103 184 184 91 103 110 hvcurveto
          57 -574 hlineto
          endchar
        </CharString>
        <CharString name="Oacute">
          141 256 198 79 -9 callsubr
        </CharString>
        <CharString name="Ocircumflex">
          -87 callgsubr
          200 531 -106 callsubr
        </CharString>
        <CharString name="Odieresis">
          141 187 198 79 -5 callsubr
        </CharString>
        <CharString name="Ograve">
          -87 callgsubr
          205 497 -99 callgsubr
        </CharString>
        <CharString name="Omega">
          245 21 -21 646 26 hstem
          73 85 442 85 vstem
          379 646 rmoveto
          121 100 -101 -178 -114 -60 -91 -60 -45 hvcurveto
          -117 208 18 -124 vlineto
          -8 -4 6 8 -2 hvcurveto
          -4 83 rlineto
          74 51 65 86 115 vvcurveto
          194 -129 111 -177 -177 -129 -111 -194 -115 65 -86 74 -51 vhcurveto
          -4 -83 rlineto
          -8 -2 -4 -6 -8 hhcurveto
          -124 -18 208 117 hlineto
          -60 45 -60 91 114 vvcurveto
          178 100 101 121 vhcurveto
          endchar
        </CharString>
        <CharString name="Oslash">
          141 -22 -21 31 26 602 26 37 -20 hstemhm
          -17 callgsubr
          hintmask 01101100
          -104 callgsubr
          hintmask 10010000
          96 -358 -49 callgsubr
          -40 -60 callsubr
        </CharString>
        <CharString name="Otilde">
          141 182 198 79 196 endchar
        </CharString>
        <CharString name="P">
          -16 21 -21 250 28 324 28 hstem
          96 82 223 80 vstem
          35 612 rmoveto
          -77 callgsubr
          224 18 -67 -102 callsubr
          218 101 -7 callgsubr
          69 -108 hvcurveto
          -244 hlineto
          239 -28 rmoveto
          84 43 -82 -80 -80 -43 -82 -84 hvcurveto
          -96 324 hlineto
          endchar
        </CharString>
        <CharString name="Q">
          141 -170 -21 807 26 hstem
          -17 callgsubr
          vstem
          35 315 rmoveto
          -194 104 -116 148 -15 vhcurveto
          5 -49 8 -81 28 -38 119 -13 rlinecurve
          4 24 -68 13 -15 34 -4 43 rlinecurve
          -6 67 rlineto
          147 17 103 116 192 vvcurveto
          -104 callsubr
          endchar
        </CharString>
        <CharString name="R">
          28 -12 30 3 -21 291 29 282 28 hstemhm
          96 82 197 76 -45 80 hintmask 10111100
          451 91 rmoveto
          85 -6 88 -99 34 vhcurveto
          hintmask 10111010
          80 20 60 57 86 vvcurveto
          106 -94 63 -108 vhcurveto
          -249 -18 -75 callsubr
          hlineto
          hintmask 01111100
          -18 224 vlineto
          hintmask 10111100
          18 -67 vlineto
          -97 callsubr
          259 65 vlineto
          114 18 -77 -123 -79 40 -24 45 45 32 -47 callgsubr
          hvcurveto
          -59 callgsubr
          hintmask 01111100
          -29 -14 -18 -20 -20 -12 21 49 vhcurveto
          -172 511 rmoveto
          hintmask 10111010
          84 43 -70 -71 -70 -43 -71 -84 hvcurveto
          -101 282 hlineto
          endchar
        </CharString>
        <CharString name="S">
          -5 -25 callsubr
          hstemhm
          59 68 249 81 hintmask 10101100
          -63 callgsubr
          hintmask 10011100
          -17 callsubr
          -20 rlineto
          -15 -28 callsubr
          hintmask 10101100
          -65 callsubr
          hintmask 01101100
          -14 callsubr
          hintmask 10101100
          24 44 -47 94 hhcurveto
          endchar
        </CharString>
        <CharString name="Scaron">
          -5 -25 callsubr
          93 -68 callsubr
          59 68 249 81 hintmask 10100011
          -63 callgsubr
          hintmask 10010011
          -17 callsubr
          -20 rlineto
          -15 -28 callsubr
          hintmask 10100011
          -65 callsubr
          hintmask 01100011
          -14 callsubr
          hintmask 10100011
          24 44 -47 94 hhcurveto
          hintmask 00001100
          1 700 -76 callgsubr
        </CharString>
        <CharString name="T">
          -2 21 -21 602 28 9 -20 hstemhm
          209 82 hintmask 11010000
          291 602 rmoveto
          129 -46 callgsubr
          hintmask 10110000
          -6 callsubr
          hintmask 11010000
          -44 callsubr
          -268 hlineto
          hintmask 10110000
          -33 callgsubr
          hintmask 11010000
          18 2 10 4 16 hhcurveto
          129 -572 hlineto
          -36 callsubr
          -87 -18 284 18 -87 hlineto
          -7 -30 callsubr
          endchar
        </CharString>
        <CharString name="Thorn">
          -16 21 -21 125 28 323 28 126 -20 hstemhm
          96 82 213 80 hintmask 01100100
          123 153 rmoveto
          -28 146 -7 callgsubr
          68 -108 hvcurveto
          -146 -28 141 hlineto
          84 43 -81 -80 -80 -43 -82 -84 hvcurveto
          hintmask 10011000
          -168 -121 -86 callgsubr
          204 18 -47 hlineto
          -82 callgsubr
          7 7 -5 -7 hvcurveto
          endchar
        </CharString>
        <CharString name="U">
          102 -12 35 607 -20 hstem
          86 82 326 34 vstem
          589 630 rmoveto
          -156 -18 -81 callgsubr
          -405 vlineto
          -131 -87 -41 -90 -82 -67 47 118 vhcurveto
          412 vlineto
          -29 callgsubr
          -405 vlineto
          -144 93 -63 128 128 93 63 144 vhcurveto
          405 vlineto
          -74 callsubr
          hlineto
          endchar
        </CharString>
        <CharString name="Uacute">
          102 282 198 85 -9 callsubr
        </CharString>
        <CharString name="Ucircumflex">
          102 -12 35 607 -54 callsubr
          86 82 326 34 hintmask 11001100
          589 630 rmoveto
          -156 -18 -81 callgsubr
          -405 vlineto
          -131 -87 -41 -90 -82 -67 47 118 vhcurveto
          412 vlineto
          -29 callgsubr
          -405 vlineto
          -144 93 -63 128 128 93 63 144 vhcurveto
          405 vlineto
          -74 callsubr
          hlineto
          hintmask 00110000
          -257 234 -106 callsubr
        </CharString>
        <CharString name="Udieresis">
          102 202 198 85 -5 callsubr
        </CharString>
        <CharString name="Ugrave">
          102 -12 35 607 -54 callsubr
          86 82 326 34 hintmask 11001100
          589 630 rmoveto
          -156 -18 -81 callgsubr
          -405 vlineto
          -131 -87 -41 -90 -82 -67 47 118 vhcurveto
          412 vlineto
          -29 callgsubr
          -405 vlineto
          -144 93 -63 128 128 93 63 144 vhcurveto
          405 vlineto
          -74 callsubr
          hlineto
          hintmask 00110000
          -283 200 -99 callgsubr
        </CharString>
        <CharString name="V">
          64 -44 callgsubr
          5 630 rmoveto
          -18 37 vlineto
          11 5 -14 callgsubr
          205 -598 rlineto
          34 hlineto
          205 598 -41 callsubr
          -136 -18 50 hlineto
          -167 -488 -163 488 rlineto
          50 4 callgsubr
        </CharString>
        <CharString name="W">
          383 -44 callgsubr
          744 630 rmoveto
          -18 50 vlineto
          -149 -480 -151 480 -21 callgsubr
          15 -47 -137 -422 -143 483 -21 callgsubr
          185 -598 rlineto
          34 hlineto
          162 498 163 -498 rlineto
          34 hlineto
          185 598 -41 callsubr
          hlineto
          endchar
        </CharString>
        <CharString name="X">
          33 -44 callgsubr
          154 612 rmoveto
          50 18 -194 -18 37 -28 callgsubr
          165 -295 -175 -271 rlineto
          -7 -5 -3 -7 -11 hhcurveto
          -37 -18 137 18 -50 hlineto
          162 253 142 -253 rlineto
          -50 -18 194 18 -37 hlineto
          -11 -4 6 8 -4 hvcurveto
          -174 310 165 256 rlineto
          7 5 3 7 11 hhcurveto
          37 18 -137 -18 50 hlineto
          -152 -238 rlineto
          endchar
        </CharString>
        <CharString name="Y">
          25 -44 callgsubr
          231 82 vstem
          -82 callsubr
          endchar
        </CharString>
        <CharString name="Yacute">
          25 238 198 89 -9 callsubr
        </CharString>
        <CharString name="Ydieresis">
          25 -43 callgsubr
          138 -21 94 -20 hstemhm
          231 82 hintmask 11001000
          -82 callsubr
          hintmask 00110000
          -357 144 rmoveto
          -93 callsubr
        </CharString>
        <CharString name="Z">
          13 -23 callsubr
          611 28 9 -20 hstemhm
          hintmask 10100000
          30 hmoveto
          344 hlineto
          hintmask 01100000
          -93 callgsubr
          hintmask 10100000
          -50 callgsubr
          -284 hlineto
          359 574 rlineto
          28 -323 vlineto
          hintmask 10010000
          -33 callgsubr
          hintmask 10100000
          18 2 10 4 16 hhcurveto
          262 hlineto
          -358 -574 rlineto
          endchar
        </CharString>
        <CharString name="Zcaron">
          13 153 198 90 207 endchar
        </CharString>
        <CharString name="a">
          -24 callsubr
          -37 callsubr
          hintmask 11110100
          -101 callgsubr
          hintmask 11101100
          -80 callgsubr
          vhcurveto
          -41 -394 rmoveto
          hintmask 11110100
          -67 callgsubr
          endchar
        </CharString>
        <CharString name="aacute">
          -43 179 0 97 -9 callsubr
        </CharString>
        <CharString name="acircumflex">
          -43 109 0 97 195 endchar
        </CharString>
        <CharString name="acute">
          -352 -29 callsubr
          480 vmoveto
          -84 callsubr
          endchar
        </CharString>
        <CharString name="adieresis">
          -43 93 0 97 -5 callsubr
        </CharString>
        <CharString name="ae">
          182 -12 24 -24 38 394 24 -37 callsubr
          206 69 hintmask 10110110
          222 229 rmoveto
          -125 -4 -57 -64 -64 vvcurveto
          -62 39 -47 74 53 69 37 110 22 vhcurveto
          -95 26 73 -52 89 hhcurveto
          -84 callgsubr
          -72 -52 73 126 -1 hvcurveto
          273 12 rlineto
          -69 callsubr
          -58 -52 -23 -42 -36 vhcurveto
          41 -21 -39 24 -59 hhcurveto
          hintmask 01101110
          -80 callgsubr
          59 17 -49 -68 vhcurveto
          -72 vlineto
          72 2 rmoveto
          110 4 46 77 69 hhcurveto
          56 31 -45 -78 -17 -2 -23 -3 -17 hvcurveto
          -390 -214 rmoveto
          hintmask 01110110
          -38 -24 33 38 48 34 57 118 5 hvcurveto
          25 1 rlineto
          -120 -9 -53 -62 -53 hhcurveto
          endchar
        </CharString>
        <CharString name="agrave">
          -24 callsubr
          45 -21 180 -20 -99 callsubr
          31 588 -99 callgsubr
        </CharString>
        <CharString name="ampersand">
          80 -12 39 -27 27 590 26 hstemhm
          30 84 1 63 169 64 hintmask 10111100
          411 519 rmoveto
          66 -50 58 -99 -93 -54 -57 -74 -37 13 -42 29 -41 vhcurveto
          31 -45 rlineto
          -106 -32 -52 -72 -78 vvcurveto
          -90 65 -87 120 65 57 25 58 42 vhcurveto
          54 -77 rlineto
          hintmask 01111100
          3 12 25 3 36 hhcurveto
          56 18 -36 hlineto
          -8 -3 3 5 -3 hvcurveto
          -91 126 58 145 rlineto
          8 3 3 6 8 hhcurveto
          63 18 -153 -18 51 hlineto
          -52 -133 -125 176 rlineto
          89 34 45 69 62 vvcurveto
          -176 -492 rmoveto
          -64 -57 45 95 62 21 58 69 37 hvcurveto
          159 -229 rlineto
          -45 -33 -49 -23 -46 hhcurveto
          -57 513 rmoveto
          43 25 34 59 56 29 -48 -55 -53 -27 -59 -58 -28 vhcurveto
          -49 70 rlineto
          -22 31 -13 34 31 vvcurveto
          endchar
        </CharString>
        <CharString name="apple">
          421 -93 -21 129 -21 366 57 92 77 22 -20 hstemhm
          100 100 -76 91 492 93 -93 105 hintmask 1111110100000000
          556 -89 rmoveto
          1 3 4 0 3 8 7 -1 8 hhcurveto
          26 2 19 10 17 hvcurveto
          15 8 21 1 13 9 13 9 5 22 12 12 10 10 16 1 9 11 11 13 -1 24 8 14 rrcurveto
          10 17 24 1 28 10 -2 11 11 vvcurveto
          25 22 3 3 20 vhcurveto
          hintmask 1111110010000000
          14 -11 15 15 13 11 12 14 22 -24 14 25 vvcurveto
          hintmask 1111101100000000
          8 1 8 9 vvcurveto
          28 -25 3 -11 18 vhcurveto
          -6 10 5 22 -6 10 -11 19 -26 4 -14 13 -12 12 2 18 -13 9 -14 10 -16 -3 -15 8 rrcurveto
          10 -19 -2 26 -27 -10 -10 -3 -8 -24 -7 25 -26 -14 -17 -12 -14 -13 -18 12 -13 -22 -8 -23 -25 -9 -9 2 -8 hhcurveto
          -25 -1 -7 -28 -17 -9 -16 -8 -22 2 -13 -11 -11 -10 -4 -21 -10 -10 -11 -11 -21 0 -8 -13 -7 -11 3 -21 -7 -11 rrcurveto
          -10 -17 -25 -6 -25 -8 1 -9 -8 vvcurveto
          hintmask 1111110100000000
          -19 -25 -21 -21 -15 12 -10 -17 -15 -12 -15 -14 -21 25 -15 -19 -8 -3 -8 -9 vvcurveto
          -26 26 -11 8 -12 vhcurveto
          11 -18 -7 -11 11 -18 10 -16 16 3 13 -11 13 -11 -1 -24 18 -11 16 -10 7 9 23 -12 rrcurveto
          -7 13 12 -29 26 7 9 2 8 24 11 -25 20 15 15 12 16 15 16 -10 15 hhcurveto
          17 13 18 5 18 hvcurveto
          -26 92 rmoveto
          -3 -13 -10 -13 -12 -11 -11 7 -11 -12 -12 -9 -12 hhcurveto
          2 -14 -7 16 -19 -5 -5 -1 -5 hhcurveto
          -19 -7 21 5 -11 hvcurveto
          -17 9 -5 -8 -11 8 -13 8 1 18 -10 8 -9 8 -12 -2 -7 11 -8 13 5 9 -8 13 rrcurveto
          hintmask 1111101100000000
          -5 9 -20 7 19 5 2 6 5 vvcurveto
          hintmask 1111110100000000
          15 -17 11 15 11 8 11 11 12 -8 7 11 16 17 14 16 5 -1 6 5 vvcurveto
          19 19 4 7 13 vhcurveto
          5 8 -2 15 5 8 7 9 14 0 8 8 8 8 2 15 9 7 9 8 16 -2 11 6 rrcurveto
          6 13 4 21 19 6 5 -1 6 19 7 17 16 10 12 -9 10 10 12 9 11 19 3 -18 19 6 7 2 7 hhcurveto
          20 1 -19 -7 13 hvcurveto
          12 -7 11 4 10 -8 10 -7 -2 -13 9 -8 10 -10 19 -3 8 -13 4 -8 -3 -15 4 -8 rrcurveto
          8 -14 18 -1 -21 -6 -1 -6 -5 -18 18 -11 -16 -9 -8 -10 -9 -11 8 -11 -10 vvcurveto
          -3 -14 -15 -3 -19 -6 1 -7 -7 vvcurveto
          -24 -16 3 -8 -14 vhcurveto
          -6 -11 0 -17 -7 -10 -7 -8 -12 0 -7 -8 -8 -8 -4 -15 -10 -7 -9 -7 -16 -1 -10 -6 rrcurveto
          -5 -12 -1 -16 -20 -5 -5 1 -5 hhcurveto
          -3 -3 0 -1 -3 hvcurveto
          -68 414 rmoveto
          -94 -76 -76 -94 -94 76 -76 94 94 76 76 94 94 -76 76 -94 hvcurveto
          43 -125 rmoveto
          -175 -85 175 -54 68 191 -68 vlineto
          endchar
        </CharString>
        <CharString name="approxequal">
          30 80 54 -29 29 -29 54 84 54 -29 29 -29 54 2 -20 hstemhm
          hintmask 10010010
          434 324 rmoveto
          -18 -23 -25 -9 -30 hhcurveto
          hintmask 10000100
          -26 callgsubr
          hintmask 10001010
          -34 callgsubr
          -22 -128 rmoveto
          -18 -23 -25 -9 -30 hhcurveto
          hintmask 00110010
          -26 callgsubr
          hintmask 01010010
          -34 callgsubr
          endchar
        </CharString>
        <CharString name="aring">
          -43 88 0 97 202 endchar
        </CharString>
        <CharString name="asciicircum">
          30 291 -21 374 -20 hstem
          291 644 rmoveto
          -53 hlineto
          -167 -374 rlineto
          55 hlineto
          138 314 139 -314 rlineto
          55 hlineto
          endchar
        </CharString>
        <CharString name="asciitilde">
          30 164 52 -27 27 -27 52 2 -20 hstemhm
          hintmask 10010000
          448 243 rmoveto
          -18 -27 -27 -9 -32 hhcurveto
          hintmask 00100000
          -60 -63 25 -64 hhcurveto
          -39 -38 -11 -33 -36 hvcurveto
          hintmask 10010000
          21 -33 rlineto
          hintmask 01010000
          18 27 26 7 31 hhcurveto
          hintmask 10010000
          59 62 -25 64 hhcurveto
          38 41 11 35 37 hvcurveto
          endchar
        </CharString>
        <CharString name="asterisk">
          -84 362 -21 148 78 93 -20 hstem
          246 620 rmoveto
          26 -16 14 -21 -21 -16 -14 -26 -24 18 -42 11 -55 vhcurveto
          35 -62 -34 33 -26 hhcurveto
          -20 -16 -17 -21 -26 20 -12 44 -2 hvcurveto
          21 -1 37 -1 31 -4 rrcurveto
          -59 -54 -45 -19 -32 vvcurveto
          -19 17 -18 20 40 1 50 83 39 vhcurveto
          -83 39 1 -50 40 hhcurveto
          20 17 18 19 32 -45 19 -59 54 hvcurveto
          31 4 36 1 22 1 rrcurveto
          44 2 20 12 26 vvcurveto
          21 -16 17 -20 -27 -33 -33 -35 -62 vhcurveto
          11 55 18 42 24 vvcurveto
          endchar
        </CharString>
        <CharString name="at">
          293 -137 36 53 36 0 48 172 21 171 24 78 36 hstemhm
          60 36 137 68 -36 69 136 70 159 36 hintmask 1101111101100000
          470 283 rmoveto
          -45 0 -7 -1 -7 vhcurveto
          1 -9 -23 4 -29 hhcurveto
          -120 -55 -68 -64 -67 49 -42 55 52 58 39 95 23 hvcurveto
          -67 vlineto
          -80 41 -23 46 77 101 86 162 187 -151 151 -186 -186 -152 -151 -187 -187 152 -150 186 vhcurveto
          36 vlineto
          -167 -135 134 167 167 135 135 167 166 135 -135 -167 -111 -60 -101 -67 -21 -11 12 27 hvcurveto
          233 vlineto
          102 -40 62 -92 vhcurveto
          hintmask 1011111011100000
          -95 -48 -50 -66 -22 10 -18 21 17 18 5 9 11 hvcurveto
          -5 13 -3 14 15 vvcurveto
          45 24 31 42 54 16 -49 -68 vhcurveto
          -107 -247 rmoveto
          hintmask 1011111101100000
          -38 -24 31 36 45 31 60 111 9 7 0 -1 9 hvcurveto
          -113 -9 -48 -58 -48 hhcurveto
          endchar
        </CharString>
        <CharString name="atilde">
          -24 callsubr
          75 -21 45 61 -99 callsubr
          169 598 -63 callsubr
        </CharString>
        <CharString name="b">
          -7 -12 25 0 -21 414 38 1 callgsubr
          hstemhm
          86 72 221 76 hintmask 10111110
          258 -12 rmoveto
          -55 callgsubr
          356 vlineto
          -107 callsubr
          hintmask 01111110
          -624 17 vlineto
          8 62 rlineto
          hintmask 10111110
          -44 39 52 -22 56 hhcurveto
          23 418 -37 callgsubr
          -32 -30 8 20 -30 hvcurveto
          124 vlineto
          167 63 74 60 vhcurveto
          endchar
        </CharString>
        <CharString name="backslash">
          -20 callgsubr
          304 -74 rmoveto
          -249 722 rlineto
          -40 hlineto
          250 -722 rlineto
          endchar
        </CharString>
        <CharString name="bar">
          -12 callgsubr
          -107 rmoveto
          72 737 -72 hlineto
          endchar
        </CharString>
        <CharString name="braceleft">
          -214 -18 callsubr
          102 77 vstem
          111 263 rmoveto
          45 14 23 29 66 vvcurveto
          127 vlineto
          68 10 6 59 47 vhcurveto
          -10 15 rlineto
          -120 -62 -16 -6 -125 vvcurveto
          -113 vlineto
          -34 -9 -27 -48 vhcurveto
          -14 vlineto
          48 9 -27 -34 hvcurveto
          -113 vlineto
          -125 16 -6 120 -62 vhcurveto
          10 15 rlineto
          -59 47 -10 6 68 vvcurveto
          127 vlineto
          66 -23 29 -45 14 vhcurveto
          endchar
        </CharString>
        <CharString name="braceright">
          -214 -18 callsubr
          109 77 vstem
          177 259 rmoveto
          -45 -14 -23 -29 -66 vvcurveto
          -127 vlineto
          -68 -10 -6 -59 -47 vhcurveto
          10 -15 rlineto
          120 62 16 6 125 vvcurveto
          113 vlineto
          34 9 27 48 vhcurveto
          14 vlineto
          -48 -9 27 34 hvcurveto
          113 vlineto
          125 -16 6 -120 62 vhcurveto
          -10 -15 rlineto
          59 -47 10 -6 -68 vvcurveto
          -127 vlineto
          -66 23 -29 45 -14 vhcurveto
          endchar
        </CharString>
        <CharString name="bracketleft">
          -7 callsubr
          70 72 hintmask 11010000
          142 598 rmoveto
          -27 callgsubr
          77 18 -79 hlineto
          hintmask 10110000
          -36 -36 3 3 -12 hvcurveto
          -749 vlineto
          -50 callsubr
          79 18 -77 -102 callsubr
          endchar
        </CharString>
        <CharString name="bracketright">
          -7 callsubr
          121 72 hintmask 10110000
          121 -75 rmoveto
          -94 callsubr
          -77 -18 79 hlineto
          36 36 -3 -3 12 hvcurveto
          749 vlineto
          hintmask 11010000
          -49 callsubr
          -79 -18 77 -96 callsubr
          endchar
        </CharString>
        <CharString name="breve">
          -289 509 58 50 -20 hstem
          107 567 rmoveto
          -49 -28 22 28 hvcurveto
          -30 hlineto
          -61 40 -47 67 66 40 47 61 vhcurveto
          -30 hlineto
          -28 -26 -22 -50 vhcurveto
          endchar
        </CharString>
        <CharString name="brokenbar">
          -12 callgsubr
          366 rmoveto
          72 264 -72 hlineto
          -737 vmoveto
          72 264 -72 hlineto
          endchar
        </CharString>
        <CharString name="bullet">
          -276 231 -21 146 -20 hstem
          40 283 rmoveto
          -40 33 -33 40 40 33 33 40 40 -33 33 -40 -40 -33 -33 -40 vhcurveto
          endchar
        </CharString>
        <CharString name="c">
          -81 -12 24 408 24 hstem
          40 76 193 71 vstem
          244 420 rmoveto
          45 20 -35 -41 -20 -5 -23 -9 -19 hvcurveto
          -10 11 19 -6 18 hhcurveto
          31 6 36 30 64 -42 48 -94 -113 -98 callsubr
          129 53 75 75 hvcurveto
          endchar
        </CharString>
        <CharString name="caron">
          -294 511 -65 callgsubr
          hstem
          105 490 -76 callgsubr
        </CharString>
        <CharString name="ccedilla">
          -81 103 0 99 203 endchar
        </CharString>
        <CharString name="cedilla">
          -264 -218 23 195 -20 hstem
          174 44 vstem
          109 hmoveto
          -73 callsubr
        </CharString>
        <CharString name="cent">
          -68 -34 -21 119 25 389 24 119 -20 hstem
          41 78 112 31 55 69 vstem
          262 -55 rmoveto
          119 vlineto
          68 5 61 42 17 76 -20 5 rcurveline
          -67 -17 -55 -36 -68 hhcurveto
          -75 -54 71 123 124 55 71 77 47 19 -39 -39 -18 -5 -18 -8 -18 hvcurveto
          -8 callgsubr
          59 -35 53 -89 4 hvcurveto
          119 -31 -119 vlineto
          -107 -9 -83 -80 -130 vvcurveto
          -131 83 -80 107 -8 vhcurveto
          -119 vlineto
          endchar
        </CharString>
        <CharString name="circumflex">
          -294 -29 callsubr
          103 648 -106 callsubr
        </CharString>
        <CharString name="colon">
          -310 9 -21 444 -16 callgsubr
          vstem
          40 44 -79 callsubr
          332 vmoveto
          -32 callgsubr
        </CharString>
        <CharString name="comma">
          -70 callsubr
        </CharString>
        <CharString name="copyright">
          42 176 25 53 22 284 23 52 25 hstem
          125 54 -78 callgsubr
          295 -137 rmoveto
          6 3 -4 -6 1 hvcurveto
          2 -11 rlineto
          12 89 -12 hlineto
          -53 -7 -42 -20 -41 hhcurveto
          -54 -39 52 90 89 38 53 55 41 42 -19 -54 7 hvcurveto
          12 94 -12 hlineto
          -2 -11 rlineto
          -6 -1 -3 -4 -6 -14 -23 23 -41 hhcurveto
          -86 -61 -60 -105 -105 64 -59 83 hvcurveto
          47 22 27 9 hhcurveto
          endchar
        </CharString>
        <CharString name="currency">
          110 -21 45 30 260 30 46 -20 hstem
          72 30 260 30 vstem
          72 294 rmoveto
          -35 11 -32 18 -26 vhcurveto
          -75 -75 38 -37 75 75 rlineto
          -19 26 32 -11 35 hhcurveto
          34 33 11 19 26 hvcurveto
          75 -75 37 38 -75 74 rlineto
          19 26 11 32 35 vvcurveto
          34 -11 33 -19 26 vhcurveto
          75 75 -37 38 -76 -76 rlineto
          19 -26 -32 11 -34 hhcurveto
          -35 -32 -11 -19 -26 hvcurveto
          -75 76 -38 -37 76 -76 rlineto
          -19 -26 -11 -33 -34 vvcurveto
          30 hmoveto
          72 58 58 72 72 58 -58 -72 -72 -58 -58 -72 -72 -58 58 72 vhcurveto
          endchar
        </CharString>
        <CharString name="d">
          -2 -12 38 -5 -21 414 30 1 callgsubr
          hstemhm
          40 76 221 72 hintmask 01111110
          337 -6 rmoveto
          -80 callsubr
          622 vlineto
          -107 callsubr
          -199 vlineto
          18 -30 -34 9 -36 hhcurveto
          -111 -86 -86 -142 hvcurveto
          hintmask 10111110
          -141 62 -87 103 46 46 26 66 40 vhcurveto
          -221 136 rmoveto
          130 55 68 74 28 31 -8 -20 33 vhcurveto
          -269 vlineto
          -72 -41 -38 -19 -38 hhcurveto
          -58 -46 67 123 hvcurveto
          endchar
        </CharString>
        <CharString name="dagger">
          -115 -86 -21 530 70 167 -20 hstemhm
          153 82 -60 37 hintmask 11101000
          201 465 rmoveto
          hintmask 11110000
          -67 callsubr
          26 -554 rlineto
          11 hlineto
          26 554 -39 callgsubr
          endchar
        </CharString>
        <CharString name="daggerdbl">
          -115 -98 -21 167 70 305 70 167 -20 hstem
          152 82 vstem
          186 76 rmoveto
          -13 -70 -21 -52 -29 vvcurveto
          -29 18 -15 23 23 18 15 29 29 -20 52 -13 70 vhcurveto
          -10 70 34 -18 25 -24 callgsubr
          -21 -43 -14 -10 -41 hvcurveto
          -26 176 26 177 -39 callgsubr
          -67 callsubr
          25 -177 -25 -176 rlineto
          10 -41 -43 14 -21 -23 callgsubr
          25 34 18 10 70 hvcurveto
          endchar
        </CharString>
        <CharString name="degree">
          -228 428 41 132 41 hstem
          30 41 132 41 vstem
          30 535 rmoveto
          -59 48 -48 59 59 48 48 59 59 -48 48 -59 -59 -48 -48 -59 vhcurveto
          41 hmoveto
          36 30 30 36 36 30 -30 -36 -36 -30 -30 -36 -36 -30 30 36 vhcurveto
          endchar
        </CharString>
        <CharString name="dieresis">
          -234 550 -21 94 -20 hstem
          576 vmoveto
          -93 callsubr
        </CharString>
        <CharString name="divide">
          30 30 -21 161 53 161 -20 hstem
          223 96 vstem
          462 170 -58 callsubr
          249 -113 rmoveto
          -83 callgsubr
          279 vmoveto
          -83 callgsubr
          endchar
        </CharString>
        <CharString name="dollar">
          -80 -21 768 -20 hstemhm
          45 69 -54 54 96 31 77 69 -43 73 hintmask 11101010
          241 -101 rmoveto
          90 vlineto
          105 9 71 62 86 vvcurveto
          54 -36 57 -75 33 vhcurveto
          -65 29 rlineto
          231 vlineto
          hintmask 11011100
          51 -4 26 -37 -41 vvcurveto
          -18 -5 -18 -8 -18 vhcurveto
          -8 callgsubr
          64 -44 57 -102 4 hvcurveto
          88 -31 -89 vlineto
          -103 -9 -47 -75 -76 vvcurveto
          -55 30 -55 67 -30 vhcurveto
          53 -24 rlineto
          -242 vlineto
          -53 2 -43 34 44 vvcurveto
          19 4 23 10 18 vhcurveto
          8 -9 -17 8 -21 hhcurveto
          hintmask 11101010
          -24 -12 -26 -30 -65 63 -56 102 -3 hvcurveto
          -89 vlineto
          53 331 rmoveto
          56 -26 25 -41 -39 vvcurveto
          -50 -38 -51 -65 -10 vhcurveto
          227 vlineto
          -120 209 rmoveto
          46 30 45 59 9 vhcurveto
          -216 vlineto
          -11 5 rlineto
          -62 28 -16 39 44 vvcurveto
          endchar
        </CharString>
        <CharString name="dotaccent">
          -310 542 -8 callsubr
          577 rmoveto
          -32 callgsubr
        </CharString>
        <CharString name="dotlessi">
          -233 21 -51 callsubr
          hstemhm
          106 72 hintmask 10110000
          106 32 -86 callgsubr
          194 -95 callgsubr
          406 vlineto
          hintmask 11010000
          -107 callsubr
          endchar
        </CharString>
        <CharString name="e">
          -41 callgsubr
          hstem
          40 76 206 69 vstem
          -106 callgsubr
          endchar
        </CharString>
        <CharString name="eacute">
          -90 callgsubr
          -63 60 rmoveto
          -84 callsubr
          endchar
        </CharString>
        <CharString name="ecircumflex">
          -90 callgsubr
          -6 228 -106 callsubr
        </CharString>
        <CharString name="edieresis">
          -41 callgsubr
          106 -21 94 -102 callgsubr
          -136 156 rmoveto
          -93 callsubr
        </CharString>
        <CharString name="egrave">
          -61 125 0 101 193 endchar
        </CharString>
        <CharString name="eight">
          -12 21 280 22 246 22 hstemhm
          46 78 -52 70 178 70 -51 51 -51 77 hintmask 11101100
          72 435 rmoveto
          -68 37 -47 57 -19 vhcurveto
          hintmask 11110001
          -72 -20 -48 -53 -80 vvcurveto
          -102 79 -58 106 107 78 58 102 80 -48 53 -73 20 vhcurveto
          hintmask 11101010
          57 19 38 47 68 vvcurveto
          91 -67 53 -92 -92 -67 -53 -91 vhcurveto
          hintmask 11110010
          52 -286 rmoveto
          90 49 50 58 57 51 -50 -90 -89 -51 -51 -57 -58 -49 51 89 vhcurveto
          hintmask 11101100
          18 285 rmoveto
          79 41 44 48 48 41 -44 -79 -79 -41 -44 -48 -48 -41 44 79 vhcurveto
          endchar
        </CharString>
        <CharString name="ellipsis">
          74 9 -19 callgsubr
          80 112 80 112 cntrmask 00111000
          40 44 -79 callsubr
          192 hmoveto
          -94 callgsubr
          192 hmoveto
          -32 callgsubr
        </CharString>
        <CharString name="emdash">
          158 -20 callsubr
          600 40 -600 hlineto
          endchar
        </CharString>
        <CharString name="endash">
          -96 -20 callsubr
          346 40 -346 hlineto
          endchar
        </CharString>
        <CharString name="equal">
          30 85 53 117 53 hstem
          462 255 -31 callsubr
        </CharString>
        <CharString name="eth">
          -17 -12 22 399 28 223 -20 hstem
          40 76 258 73 vstem
          169 486 rmoveto
          98 50 36 -40 31 -53 20 -69 rlinecurve
          -3 -1 rlineto
          44 -34 -45 20 -46 hhcurveto
          -93 -93 -85 -136 -145 85 -83 117 138 67 109 131 111 -48 126 -93 91 hvcurveto
          82 42 -18 35 -95 -49 -41 33 -48 26 -54 17 rlinecurve
          -7 -23 36 -15 40 -22 37 -34 rlinecurve
          -87 -45 rlineto
          -35 -305 rmoveto
          123 57 70 71 72 58 -70 -123 -131 -58 -75 -72 -71 -57 75 131 vhcurveto
          endchar
        </CharString>
        <CharString name="exclam">
          -228 9 -21 654 -20 hstem
          90 93 vstem
          150 170 rmoveto
          10 150 23 233 30 vvcurveto
          37 -16 22 -30 -30 -17 -22 -37 -30 24 -233 10 -150 vhcurveto
          61 -134 rmoveto
          -83 callgsubr
          endchar
        </CharString>
        <CharString name="exclamdown">
          -228 -189 -21 654 -20 hstem
          89 96 vstem
          185 396 rmoveto
          -83 callgsubr
          -61 -134 rmoveto
          -10 -150 -23 -233 -30 vvcurveto
          -37 16 -22 30 30 17 22 37 30 -24 233 -10 150 vhcurveto
          endchar
        </CharString>
        <CharString name="f">
          -203 -16 callsubr
          225 23 hstem
          107 71 vstem
          178 552 -97 callgsubr
          endchar
        </CharString>
        <CharString name="fi">
          66 -16 callsubr
          211 -20 34 23 hstemhm
          107 71 227 72 hintmask 11011000
          178 552 -97 callgsubr
          hintmask 11100100
          227 -400 -31 callgsubr
          408 vlineto
          -107 callsubr
          -11 176 rmoveto
          -33 callsubr
        </CharString>
        <CharString name="five">
          -12 21 293 29 170 65 43 -20 hstem
          57 69 211 76 vstem
          93 288 rmoveto
          10 29 29 4 27 hhcurveto
          89 70 -49 -104 -72 -43 -68 -84 -48 callgsubr
          85 -68 86 -135 -26 -28 -3 -7 -31 hvcurveto
          15 180 rlineto
          170 hlineto
          58 19 3 71 6 hvcurveto
          3 34 rlineto
          -21 hlineto
          -2 -20 rlineto
          -18 -2 -11 -5 -16 hhcurveto
          -229 hlineto
          endchar
        </CharString>
        <CharString name="fl">
          51 -16 callsubr
          218 -20 27 23 -6 -20 hstemhm
          107 71 212 72 hintmask 10101010
          390 32 -86 callgsubr
          194 -95 callgsubr
          622 vlineto
          -49 callsubr
          -29 -18 27 -96 callsubr
          hintmask 11010100
          -212 -64 -97 callgsubr
          endchar
        </CharString>
        <CharString name="florin">
          -201 -21 469 31 276 25 hstem
          151 70 134 69 vstem
          222 390 rmoveto
          94 17 70 66 35 15 -32 -35 -22 -5 -21 -10 -22 vhcurveto
          -7 6 17 -8 20 hhcurveto
          29 12 34 35 57 -36 46 -84 -120 -29 -147 -154 -4 hvcurveto
          -92 -31 92 -352 hlineto
          -44 -21 -35 -70 -14 vhcurveto
          4 -24 rlineto
          122 13 35 39 83 vvcurveto
          334 133 31 -133 vlineto
          endchar
        </CharString>
        <CharString name="four">
          21 -21 134 31 414 -20 hstem
          276 74 vstem
          317 579 rmoveto
          -317 -445 rlineto
          276 -101 hlineto
          -94 callsubr
          -69 -19 241 19 -69 hlineto
          -8 -30 callsubr
          103 84 31 -84 414 vlineto
          -293 -414 rmoveto
          219 307 rlineto
          -307 vlineto
          endchar
        </CharString>
        <CharString name="fraction">
          -20 callgsubr
          52 -74 -78 callsubr
        </CharString>
        <CharString name="g">
          -48 -228 24 192 66 368 22 74 -20 hstemhm
          40 44 -44 56 -23 71 163 71 1 45 hintmask 1111100110000000
          136 54 rmoveto
          -35 -17 24 23 24 17 23 35 hvcurveto
          89 hlineto
          88 65 54 94 52 -21 41 -33 25 hvcurveto
          43 4 24 26 23 hhcurveto
          20 19 -19 -43 6 hvcurveto
          2 3 -1 3 hhcurveto
          20 24 11 21 37 -36 29 -44 -54 -26 -44 -48 -8 hvcurveto
          12 -23 -27 6 -29 hhcurveto
          hintmask 1111001110000000
          -88 -64 -54 -94 -65 30 -46 48 -22 hvcurveto
          -15 hlineto
          hintmask 1111010110000000
          -68 -28 -46 -44 -38 22 -33 35 -10 hvcurveto
          -38 -33 -17 -37 -33 vvcurveto
          -64 63 -53 99 133 87 103 82 53 -37 44 -84 vhcurveto
          -66 vmoveto
          53 23 -25 -32 -57 -72 -78 -102 -74 -35 50 55 31 11 32 21 24 hvcurveto
          hintmask 1111001110000000
          16 308 rmoveto
          80 36 46 45 45 37 -46 -80 -80 -37 -46 -45 -45 -36 46 80 vhcurveto
          endchar
        </CharString>
        <CharString name="germandbls">
          29 -12 24 9 -53 callgsubr
          224 24 hstemhm
          107 71 33 66 -21 58 59 71 3 59 hintmask 1011110110000000
          347 12 rmoveto
          -44 -26 27 41 19 6 22 8 18 hvcurveto
          10 -10 -3 callsubr
          -77 66 -35 70 103 56 71 67 43 -17 33 -59 39 hvcurveto
          -63 42 rlineto
          hintmask 0111101110000000
          -31 21 -22 19 28 62 130 40 96 vvcurveto
          69 -66 42 -73 -93 -105 -67 -161 vhcurveto
          -62 -79 callgsubr
          133 495 hlineto
          94 58 47 53 44 40 -32 -64 vhcurveto
          -110 -117 -24 -92 vvcurveto
          -45 23 -19 30 -20 vhcurveto
          81 -54 rlineto
          47 -31 10 -20 -26 vvcurveto
          hintmask 1011110110000000
          -44 -41 -43 -59 vhcurveto
          endchar
        </CharString>
        <CharString name="grave">
          -352 -29 callsubr
          79 614 -99 callgsubr
        </CharString>
        <CharString name="greater">
          0 callgsubr
          -43 callsubr
          endchar
        </CharString>
        <CharString name="greaterequal">
          -40 callgsubr
          -43 callsubr
          hintmask 10000000
          58 -375 -48 callsubr
        </CharString>
        <CharString name="guillemotleft">
          -107 -18 callgsubr
          179 225 -62 callgsubr
          -149 -12 -62 callgsubr
          endchar
        </CharString>
        <CharString name="guillemotright">
          -107 -52 callsubr
          149 12 -62 callsubr
          endchar
        </CharString>
        <CharString name="guilsinglleft">
          -256 -18 callgsubr
          30 225 -62 callgsubr
          endchar
        </CharString>
        <CharString name="guilsinglright">
          -256 -52 callsubr
          endchar
        </CharString>
        <CharString name="h">
          26 21 -21 405 39 1 callgsubr
          hstem
          91 -10 callgsubr
          vstem
          437 -22 callgsubr
          352 vlineto
          -107 callsubr
          -586 -40 callsubr
          -47 -18 180 18 -33 -102 callsubr
          135 vlineto
          -56 callgsubr
        </CharString>
        <CharString name="hungarumlaut">
          -202 -29 callsubr
          480 vmoveto
          -84 callsubr
          79 -134 rmoveto
          -84 callsubr
          endchar
        </CharString>
        <CharString name="hyphen">
          -190 -20 callsubr
          252 40 -252 hlineto
          endchar
        </CharString>
        <CharString name="i">
          -233 -16 callsubr
          211 -20 hstem
          106 72 vstem
          106 32 -31 callgsubr
          408 vlineto
          -107 callsubr
          -11 176 rmoveto
          -33 callsubr
        </CharString>
        <CharString name="iacute">
          -233 84 0 245 -9 callsubr
        </CharString>
        <CharString name="icircumflex">
          -233 33 0 245 195 endchar
        </CharString>
        <CharString name="idieresis">
          -233 -2 0 245 -5 callsubr
        </CharString>
        <CharString name="igrave">
          -233 21 -51 callsubr
          71 -68 callsubr
          106 72 hintmask 10100100
          106 32 -86 callgsubr
          194 -95 callgsubr
          406 vlineto
          hintmask 11000100
          -107 callsubr
          hintmask 00011000
          -1 214 -99 callgsubr
        </CharString>
        <CharString name="infinity">
          204 134 24 254 26 hstem
          35 62 512 62 vstem
          509 438 rmoveto
          -82 -45 -51 -59 -34 hvcurveto
          59 -33 -41 51 -77 hhcurveto
          -109 -53 -76 -77 -76 54 -75 108 82 44 51 58 35 hvcurveto
          -58 33 41 -51 77 hhcurveto
          108 54 75 76 77 -53 76 -109 hvcurveto
          -26 vmoveto
          59 41 -47 -77 -75 -40 -55 -60 -67 -34 56 61 -32 hvcurveto
          69 34 32 68 67 hhcurveto
          -312 -254 rmoveto
          -60 -40 55 75 77 41 47 59 67 33 -55 -61 33 hvcurveto
          -70 -35 -32 -68 -66 hhcurveto
          endchar
        </CharString>
        <CharString name="integral">
          -95 -126 25 741 -20 107 25 hstem
          166 75 vstem
          84 -126 rmoveto
          130 27 172 168 hvcurveto
          349 vlineto
          94 17 70 55 38 7 -28 -39 vhcurveto
          -12 5 24 -8 19 hhcurveto
          11 10 3 9 38 -20 62 -84 -130 -27 -172 -168 hvcurveto
          -349 vlineto
          -94 -17 -70 -55 -38 -7 28 39 vhcurveto
          12 -5 -24 8 -19 hhcurveto
          -11 -10 -3 -9 -38 20 -62 84 hvcurveto
          endchar
        </CharString>
        <CharString name="j">
          -257 -228 23 637 -20 211 -20 hstemhm
          91 71 -71 83 hintmask 11101000
          80 -38 callgsubr
          83 -138 rmoveto
          -107 callsubr
          -520 vlineto
          -59 -23 -26 -32 -28 -13 21 22 19 6 22 9 18 vhcurveto
          10 -12 -3 callsubr
          -39 24 -47 76 hvcurveto
          hintmask 11110000
          73 61 85 175 hvcurveto
          endchar
        </CharString>
        <CharString name="k">
          -51 15 -21 27 -53 callgsubr
          218 -20 44 -20 hstemhm
          91 72 hintmask 01111100
          91 32 -31 callgsubr
          624 vlineto
          -107 callsubr
          206 -184 -15 callsubr
          -166 -187 rlineto
          hintmask 10111100
          160 -233 rlineto
          hintmask 01111100
          -26 callsubr
          -159 231 129 147 rlineto
          6 6 4 4 8 hhcurveto
          37 4 callgsubr
        </CharString>
        <CharString name="l">
          -248 -43 callgsubr
          44 -20 hstem
          91 72 vstem
          91 32 -86 callgsubr
          194 -95 callgsubr
          622 vlineto
          -107 callsubr
          endchar
        </CharString>
        <CharString name="less">
          0 callgsubr
          -47 callsubr
          endchar
        </CharString>
        <CharString name="lessequal">
          -40 callgsubr
          -47 callsubr
          hintmask 10000000
          335 -375 -48 callsubr
        </CharString>
        <CharString name="logicalnot">
          30 65 -21 126 53 hstem
          409 53 vstem
          462 44 rmoveto
          179 -392 -53 339 -126 vlineto
          endchar
        </CharString>
        <CharString name="lozenge">
          36 -58 -21 779 -20 hstem
          299 -79 rmoveto
          211 389 -211 390 rlineto
          -61 hlineto
          -210 -390 210 -389 rlineto
          9 719 rmoveto
          180 -330 -180 -329 -173 329 rlineto
          endchar
        </CharString>
        <CharString name="lslash">
          -248 21 -21 265 -21 144 -20 262 -20 44 -20 hstemhm
          91 72 hintmask 01100000
          30 244 rmoveto
          214 109 -18 35 -214 -109 rlineto
          hintmask 10011100
          79 -247 -86 callgsubr
          194 -95 callgsubr
          622 vlineto
          -107 callsubr
          endchar
        </CharString>
        <CharString name="m">
          300 -30 callgsubr
          192 72 192 72 cntrmask 00011100
          hintmask 11011100
          706 292 rmoveto
          111 -63 41 -59 -57 -59 -29 -112 -26 vhcurveto
          102 -5 -60 39 -57 hhcurveto
          -56 -60 -29 -111 -26 hvcurveto
          134 vlineto
          hintmask 10111100
          -59 callsubr
          123 vlineto
          hintmask 11011100
          168 50 82 64 45 33 -29 -71 vhcurveto
          -275 -40 callsubr
          -33 -18 180 -95 callgsubr
          123 vlineto
          168 50 82 64 45 33 -69 callgsubr
        </CharString>
        <CharString name="macron">
          -190 534 54 hstem
          35 534 rmoveto
          242 54 -242 hlineto
          endchar
        </CharString>
        <CharString name="minus">
          30 170 53 hstem
          462 170 -48 callsubr
        </CharString>
        <CharString name="mu">
          16 -195 -21 204 -45 callsubr
          hstemhm
          81 41 -41 -10 callgsubr
          hintmask 10101101
          355 -6 rmoveto
          -50 callsubr
          35 18 hlineto
          -39 -8 9 43 hvcurveto
          368 vlineto
          hintmask 11010011
          -21 callsubr
          -85 -61 callsubr
          hintmask 11001011
          311 vlineto
          hintmask 11010101
          -21 callsubr
          -424 vlineto
          -93 9 -61 40 17 32 15 22 14 vhcurveto
          -52 35 -19 56 74 vvcurveto
          34 vlineto
          -22 23 30 -10 30 hhcurveto
          59 64 29 112 27 hvcurveto
          endchar
        </CharString>
        <CharString name="multiply">
          30 49 -21 336 -20 hstem
          136 363 rmoveto
          -38 -37 130 -130 -130 -130 38 -37 129 129 131 -130 37 38 -130 130 130 130 -37 38 -131 -131 rlineto
          endchar
        </CharString>
        <CharString name="n">
          46 -30 callgsubr
          202 72 hintmask 11011000
          452 -22 callgsubr
          136 vlineto
          hintmask 10111000
          -59 callsubr
          135 vlineto
          hintmask 11011000
          -56 callgsubr
        </CharString>
        <CharString name="nine">
          9 -21 229 29 311 22 hstem
          55 77 208 79 vstem
          120 -12 rmoveto
          205 66 94 180 146 vvcurveto
          110 -64 89 -123 -107 -70 -67 -114 -112 89 -69 81 41 40 18 39 25 vhcurveto
          -38 -168 -120 -74 -61 -21 rrcurveto
          228 379 rmoveto
          -95 -46 -49 -54 -54 -54 55 106 95 45 55 56 57 50 -62 -105 vhcurveto
          endchar
        </CharString>
        <CharString name="notequal">
          30 -75 -21 181 53 117 53 184 -20 hstemhm
          hintmask 10010000
          183 -96 rmoveto
          202 588 rlineto
          -36 hlineto
          -201 -588 rlineto
          hintmask 01100000
          314 351 -31 callsubr
        </CharString>
        <CharString name="ntilde">
          46 155 0 110 196 endchar
        </CharString>
        <CharString name="numbersign">
          -80 -21 303 31 136 31 267 -20 hstem
          14 -101 rmoveto
          89 303 rlineto
          172 hlineto
          -89 -303 rlineto
          33 hlineto
          89 303 rlineto
          119 hlineto
          10 31 rlineto
          -120 hlineto
          40 136 rlineto
          119 hlineto
          10 31 rlineto
          -120 -9 callgsubr
          -172 -9 callgsubr
          -117 hlineto
          -10 -31 rlineto
          118 hlineto
          -40 -136 rlineto
          -117 hlineto
          -10 -31 rlineto
          118 hlineto
          -89 -303 rlineto
          171 470 rmoveto
          172 hlineto
          -40 -136 rlineto
          -172 hlineto
          endchar
        </CharString>
        <CharString name="o">
          -17 -12 22 412 22 hstem
          1 callsubr
          vstem
          -91 callsubr
          endchar
        </CharString>
        <CharString name="oacute">
          -17 194 0 111 -9 callsubr
        </CharString>
        <CharString name="ocircumflex">
          -17 -12 22 412 22 45 -68 callsubr
          1 callsubr
          hintmask 11001100
          -91 callsubr
          hintmask 00110000
          125 432 -106 callsubr
        </CharString>
        <CharString name="odieresis">
          -17 108 0 111 -5 callsubr
        </CharString>
        <CharString name="oe">
          268 -12 22 -22 24 211 20 177 24 -22 22 hstemhm
          1 callsubr
          206 69 hintmask 10001110
          -91 callsubr
          hintmask 01110011
          455 228 -107 callgsubr
          endchar
        </CharString>
        <CharString name="ogonek">
          -260 -186 29 169 -20 hstem
          30 49 vstem
          199 -127 rmoveto
          -19 -20 -23 -11 -22 hhcurveto
          -30 -25 20 43 34 23 40 59 20 hvcurveto
          -6 12 rlineto
          -88 -25 -37 -51 -44 vvcurveto
          -42 35 -36 57 33 33 16 32 24 vhcurveto
          endchar
        </CharString>
        <CharString name="ograve">
          -17 147 0 111 193 endchar
        </CharString>
        <CharString name="one">
          21 -21 579 -20 hstem
          204 74 vstem
          73 hmoveto
          314 19 -94 hlineto
          -8 -7 6 8 hvcurveto
          432 vlineto
          57 5 38 5 19 vhcurveto
          -23 -9 -58 -15 -55 -8 -91 -13 rcurveline
          2 -24 111 6 rlineto
          20 10 -7 -18 hvcurveto
          -460 vlineto
          -7 -1 -6 -5 -7 hhcurveto
          -117 hlineto
          endchar
        </CharString>
        <CharString name="onehalf">
          277 -53 -21 74 45 -32 -21 591 -20 85 -20 hstemhm
          139 58 449 55 hintmask 01010110
          139 -88 callsubr
          449 -175 -34 callsubr
          hintmask 00110110
          -32 callsubr
          hintmask 01010110
          -71 callsubr
          hintmask 10001000
          -308 -421 -78 callsubr
        </CharString>
        <CharString name="onequarter">
          -2 callsubr
          471 -20 85 -20 hstemhm
          139 58 416 57 hintmask 01110110
          139 -88 callsubr
          474 -490 rmoveto
          -94 callsubr
          -40 -18 166 18 -41 -102 callsubr
          56 55 24 -55 246 -48 vlineto
          -172 -270 rlineto
          163 hlineto
          -116 24 rmoveto
          116 182 rlineto
          -182 vlineto
          hintmask 10001000
          -333 -186 -78 callsubr
        </CharString>
        <CharString name="onesuperior">
          -210 234 -21 370 -20 hstem
          118 58 vstem
          118 -88 callsubr
          endchar
        </CharString>
        <CharString name="ordfeminine">
          -227 396 -21 22 -21 258 -20 34 -20 hstemhm
          20 51 97 51 hintmask 01101100
          85 593 rmoveto
          25 13 16 24 32 14 -29 -41 vhcurveto
          -47 vlineto
          1 -7 -13 1 -15 hhcurveto
          -78 -35 -42 -39 -41 31 -21 34 32 35 19 40 16 hvcurveto
          hintmask 10011100
          -40 4 21 -20 27 hhcurveto
          36 14 23 26 5 -1 6 -1 6 hvcurveto
          -18 -1 rlineto
          1 -5 1 -6 -6 vvcurveto
          -14 -5 -14 -14 -7 -7 7 20 vhcurveto
          128 vlineto
          61 -37 37 -60 -59 -26 -28 -39 -17 7 -15 18 12 12 3 7 7 vhcurveto
          -5 11 -3 13 10 vvcurveto
          17 -195 rmoveto
          -20 -11 21 22 43 39 21 39 5 6 0 -1 7 hvcurveto
          -73 -3 -32 -33 -30 hhcurveto
          endchar
        </CharString>
        <CharString name="ordmasculine">
          -211 396 -21 260 -20 33 -20 hstemhm
          20 54 143 54 hintmask 10111000
          20 512 rmoveto
          -87 53 -50 72 72 54 50 87 87 -54 49 -72 -72 -53 -49 -87 vhcurveto
          54 hmoveto
          hintmask 11011000
          78 31 45 40 40 32 -45 -78 -79 -32 -45 -40 -40 -31 45 79 vhcurveto
          endchar
        </CharString>
        <CharString name="oslash">
          -17 83 -69 111 47 endchar
        </CharString>
        <CharString name="otilde">
          -17 103 0 111 196 endchar
        </CharString>
        <CharString name="p">
          -2 -4 callsubr
          -12 -20 hstemhm
          91 72 221 76 hintmask 11101100
          91 -68 callgsubr
          140 vlineto
          hintmask 11011100
          -107 callsubr
          hintmask 11101100
          195 6 -39 callsubr
          159 64 70 59 vhcurveto
          endchar
        </CharString>
        <CharString name="paragraph">
          -51 -71 -21 722 -20 hstem
          240 34 52 34 vstem
          274 -92 rmoveto
          704 52 -704 34 690 -1 callgsubr
          -181 hlineto
          -122 -98 -62 -122 -122 98 -62 122 hvcurveto
          -354 vlineto
          endchar
        </CharString>
        <CharString name="parenleft">
          -215 -18 callsubr
          50 82 vstem
          132 261 rmoveto
          139 45 147 90 73 vhcurveto
          -10 15 rlineto
          -137 -71 -70 -151 -152 vvcurveto
          -152 70 -151 137 -71 vhcurveto
          10 15 rlineto
          -90 73 -45 147 139 vvcurveto
          endchar
        </CharString>
        <CharString name="parenright">
          -215 -18 callsubr
          155 82 vstem
          155 261 rmoveto
          -139 -45 -147 -90 -73 vhcurveto
          10 -15 rlineto
          137 71 70 151 152 vvcurveto
          152 -70 151 -137 71 vhcurveto
          -10 -15 rlineto
          90 -73 45 -147 -139 vvcurveto
          endchar
        </CharString>
        <CharString name="partialdiff">
          -5 -12 28 388 29 279 -20 hstem
          40 79 264 74 vstem
          141 712 rmoveto
          -13 -31 142 -57 67 -115 35 -111 rlinecurve
          -11 -9 rlineto
          30 -34 -33 14 -47 hhcurveto
          -105 -102 -99 -137 -128 82 -81 112 154 69 118 141 184 -117 224 -199 57 hvcurveto
          106 -696 rmoveto
          -78 -50 72 105 131 62 80 74 78 50 -74 -103 -103 -48 -108 -88 hvcurveto
          endchar
        </CharString>
        <CharString name="percent">
          277 -42 callgsubr
          hintmask 0111011110000000
          -87 callsubr
          hintmask 1000100000000000
          -246 -254 -78 callsubr
        </CharString>
        <CharString name="period">
          -310 9 -8 callsubr
          44 rmoveto
          -32 callgsubr
        </CharString>
        <CharString name="periodcentered">
          -310 248 -8 callsubr
          283 rmoveto
          -32 callgsubr
        </CharString>
        <CharString name="perthousand">
          567 -42 callgsubr
          41 60 150 60 hintmask 0111011111100000
          -87 callsubr
          251 hmoveto
          -101 callsubr
          hintmask 1000100000000000
          -557 -254 -78 callsubr
        </CharString>
        <CharString name="pi">
          30 21 -21 399 33 hstem
          116 71 163 72 vstem
          350 hmoveto
          133 -95 callgsubr
          367 71 33 -448 -33 71 -399 71 399 163 vlineto
          endchar
        </CharString>
        <CharString name="plus">
          30 21 -21 170 53 169 -20 hstem
          239 53 vstem
          292 392 -38 callsubr
          endchar
        </CharString>
        <CharString name="plusminus">
          30 0 53 68 -21 170 53 169 -20 hstemhm
          239 53 hintmask 01111000
          292 492 -38 callsubr
          hintmask 10000000
          170 -323 -48 callsubr
        </CharString>
        <CharString name="product">
          178 -52 -21 740 33 hstem
          139 75 252 76 vstem
          542 667 rmoveto
          74 33 -551 -33 74 -740 75 740 252 -740 137 -95 callgsubr
          endchar
        </CharString>
        <CharString name="q">
          -7 -201 -21 210 38 388 30 -4 -5 callgsubr
          221 72 hintmask 11101100
          237 444 rmoveto
          -111 -86 -86 -142 -146 78 -82 80 53 54 35 75 32 hvcurveto
          -320 vlineto
          -80 callsubr
          hintmask 11011100
          624 -16 vlineto
          -10 -62 rlineto
          hintmask 11101100
          43 -39 -51 23 -56 hhcurveto
          -17 -418 rmoveto
          -53 -51 64 126 130 55 68 74 31 30 -8 -19 31 hvcurveto
          -234 vlineto
          -86 -24 -47 -41 -46 hhcurveto
          endchar
        </CharString>
        <CharString name="question">
          -147 9 -21 612 21 hstem
          35 67 34 37 93 69 vstem
          184 621 rmoveto
          -103 -46 -57 -64 -29 11 -25 24 20 17 8 7 8 hvcurveto
          -9 18 -4 22 19 vvcurveto
          44 27 36 55 39 43 -30 -60 vhcurveto
          -111 -130 -10 -125 vvcurveto
          -5 0 -5 9 -84 vhcurveto
          28 65 hlineto
          74 162 62 114 vvcurveto
          91 -79 45 -72 vhcurveto
          23 -585 rmoveto
          -83 callgsubr
          endchar
        </CharString>
        <CharString name="questiondown">
          -147 -189 21 612 -20 hstem
          20 69 93 37 34 67 vstem
          171 -189 rmoveto
          103 46 57 64 29 -11 25 -24 -20 -17 -8 -7 -8 hvcurveto
          9 -18 4 -22 -19 vvcurveto
          -44 -27 -36 -55 -39 -43 30 60 vhcurveto
          111 130 10 125 vvcurveto
          5 0 5 -9 84 vhcurveto
          -28 -65 hlineto
          -74 -162 -62 -114 vvcurveto
          -91 79 -45 72 vhcurveto
          73 585 rmoveto
          -83 callgsubr
          endchar
        </CharString>
        <CharString name="quotedbl">
          -225 -53 callsubr
          143 hmoveto
          -61 callgsubr
          endchar
        </CharString>
        <CharString name="quotedblbase">
          -167 -104 -13 callsubr
          -24 -81 callsubr
        </CharString>
        <CharString name="quotedblleft">
          -167 -12 callsubr
          40 73 72 -64 callsubr
          145 hmoveto
          -76 callsubr
          endchar
        </CharString>
        <CharString name="quotedblright">
          -167 464 -13 callsubr
          544 -81 callsubr
        </CharString>
        <CharString name="quoteleft">
          -312 -12 callsubr
          40 -64 callsubr
          endchar
        </CharString>
        <CharString name="quoteright">
          -312 -12 callsubr
          77 73 vstem
          77 544 rmoveto
          -100 callsubr
        </CharString>
        <CharString name="quotesinglbase">
          -70 callsubr
        </CharString>
        <CharString name="quotesingle">
          -351 -53 callsubr
          endchar
        </CharString>
        <CharString name="r">
          -114 -30 callgsubr
          138 67 hintmask 11011000
          383 332 rmoveto
          59 -34 53 -56 -46 -47 -37 -97 -22 vhcurveto
          128 vlineto
          hintmask 10111000
          -3 -12 -36 -3 -36 hhcurveto
          -49 -79 callgsubr
          214 18 -67 -102 callsubr
          133 vlineto
          hintmask 11011000
          168 50 72 44 18 26 -7 -46 -19 -5 -22 -8 -18 vhcurveto
          -10 10 -36 callgsubr
          hvcurveto
          endchar
        </CharString>
        <CharString name="radical">
          -49 -105 -21 789 37 hstem
          241 -126 rmoveto
          194 789 rlineto
          151 37 -184 hlineto
          -182 -745 -138 395 rlineto
          -82 hlineto
          169 -476 rlineto
          endchar
        </CharString>
        <CharString name="registered">
          42 176 25 357 21 56 25 hstem
          188 52 92 51 -78 callgsubr
          224 -142 rmoveto
          -25 -102 callsubr
          109 29 vlineto
          72 -141 rlineto
          2 7 16 2 15 hhcurveto
          28 14 -11 hlineto
          -7 -3 4 5 -3 hvcurveto
          -63 121 rlineto
          37 13 26 28 42 vvcurveto
          56 -49 34 -56 vhcurveto
          -121 -14 17 hlineto
          7 6 -5 -7 1 hvcurveto
          -263 vlineto
          -9 -15 callgsubr
          -17 -14 122 hlineto
          -3 296 rmoveto
          37 19 -35 -34 -34 -19 -34 -37 hvcurveto
          -36 137 hlineto
          endchar
        </CharString>
        <CharString name="ring">
          -245 484 24 137 24 hstem
          30 53 91 53 vstem
          30 576 rmoveto
          -58 42 -34 56 57 42 34 58 59 -42 34 -57 -56 -42 -34 -59 vhcurveto
          53 hmoveto
          44 20 25 25 24 22 -25 -44 -45 -22 -23 -24 -25 -20 23 45 vhcurveto
          endchar
        </CharString>
        <CharString name="s">
          -107 -12 24 405 27 hstem
          59 56 176 59 vstem
          -89 callgsubr
          endchar
        </CharString>
        <CharString name="scaron">
          -107 -12 24 405 27 67 -68 callsubr
          59 56 176 59 hintmask 11001100
          -89 callgsubr
          hintmask 00110000
          -67 258 -76 callgsubr
        </CharString>
        <CharString name="section">
          -87 -110 24 701 27 hstem
          59 60 188 63 vstem
          59 235 rmoveto
          -47 25 -45 51 -19 vhcurveto
          111 -42 rlineto
          43 -16 18 -29 -28 vvcurveto
          -48 -44 -47 -63 -57 -46 21 61 -9 vhcurveto
          -8 56 rlineto
          -19 -43 hlineto
          -38 -3 -39 -3 -13 vhcurveto
          -11 27 45 -18 73 hhcurveto
          110 60 76 72 47 -25 48 -56 19 hvcurveto
          -29 10 rlineto
          72 22 38 60 57 vvcurveto
          47 -26 46 -55 21 vhcurveto
          -111 41 rlineto
          -42 15 -17 30 29 vvcurveto
          43 36 42 55 50 39 -22 -55 8 vhcurveto
          8 -56 rlineto
          19 43 hlineto
          38 3 39 3 11 vhcurveto
          6 -17 -46 23 -67 hhcurveto
          -98 -53 -74 -70 -47 25 -45 51 -19 hvcurveto
          35 -14 rlineto
          -73 -17 -38 -61 -60 vvcurveto
          60 32 rmoveto
          42 36 40 55 12 13 -2 -3 11 vhcurveto
          43 -16 18 -28 -28 vvcurveto
          -44 -38 -42 -56 -6 vhcurveto
          -35 13 rlineto
          -42 15 -17 30 29 vvcurveto
          endchar
        </CharString>
        <CharString name="semicolon">
          -310 -104 -21 557 -20 hstemhm
          40 112 -74 74 hintmask 11100000
          40 376 -79 callsubr
          hintmask 11010000
          38 -400 rmoveto
          -100 callsubr
        </CharString>
        <CharString name="seven">
          9 -21 516 62 10 -20 hstemhm
          176 69 hintmask 11010000
          424 566 rmoveto
          -249 hlineto
          hintmask 10110000
          -58 -38 5 5 -18 hvcurveto
          4 -19 5 -57 -57 vvcurveto
          -49 24 vlineto
          12 87 rlineto
          hintmask 11010000
          19 2 9 4 18 hhcurveto
          231 hlineto
          -136 -316 rlineto
          -26 -61 -28 -65 -35 vvcurveto
          -24 10 -15 29 18 18 5 10 11 vhcurveto
          -12 26 -5 26 26 vvcurveto
          33 9 34 16 40 vhcurveto
          endchar
        </CharString>
        <CharString name="six">
          -12 21 306 29 235 -20 hstem
          51 81 215 77 vstem
          360 579 rmoveto
          -203 -64 -106 -181 -146 vvcurveto
          -111 62 -89 126 107 78 66 112 110 -87 68 -83 -43 -42 -19 -39 -27 vhcurveto
          39 171 124 78 63 20 rrcurveto
          -236 -379 rmoveto
          93 52 46 54 55 54 -51 -101 -97 -49 -57 -59 -58 -49 62 105 vhcurveto
          endchar
        </CharString>
        <CharString name="slash">
          -20 callgsubr
          54 -74 -49 callgsubr
          -40 -60 callsubr
        </CharString>
        <CharString name="space">
          -252 endchar
        </CharString>
        <CharString name="sterling">
          -12 69 190 31 273 28 hstem
          97 70 178 69 vstem
          332 278 rmoveto
          -146 hlineto
          -10 47 -9 46 45 vvcurveto
          106 50 29 51 -4 callgsubr
          vhcurveto
          -10 callsubr
          -36 59 -102 -76 -103 -61 -135 -28 8 -37 10 -40 hvcurveto
          -78 -31 87 hlineto
          16 -58 18 -60 3 -40 rrcurveto
          5 -18 -16 4 -13 hhcurveto
          -50 -24 -29 -29 -26 21 -26 42 34 34 18 39 20 hvcurveto
          -27 33 37 -30 64 hhcurveto
          51 50 34 122 14 hvcurveto
          -25 4 rlineto
          -70 -14 -34 -21 -44 hhcurveto
          -41 -43 10 11 -37 hvcurveto
          4 14 2 17 18 vvcurveto
          40 -7 40 -8 40 vhcurveto
          139 hlineto
          -216 -240 rmoveto
          -22 -11 17 18 18 12 18 24 15 14 -5 -8 13 hvcurveto
          -34 -3 -16 -24 -26 hhcurveto
          endchar
        </CharString>
        <CharString name="summation">
          6 -73 66 674 33 hstem
          34 -22 rmoveto
          53 -51 rlineto
          391 66 -346 hlineto
          222 320 -223 354 rlineto
          354 33 -435 -33 hlineto
          220 -349 rlineto
          endchar
        </CharString>
        <CharString name="t">
          -229 9 -21 444 -20 126 -20 hstem
          81 72 vstem
          138 538 rmoveto
          -52 -18 -27 -54 -24 -100 callgsubr
          -298 -89 callsubr
          339 100 18 -100 106 vlineto
          endchar
        </CharString>
        <CharString name="thorn">
          -7 -4 callsubr
          1 callgsubr
          hstem
          86 72 221 76 vstem
          86 -68 callgsubr
          356 vlineto
          -107 callsubr
          195 -210 -39 callsubr
          155 64 74 59 vhcurveto
          endchar
        </CharString>
        <CharString name="three">
          -12 21 548 22 hstemhm
          54 69 -47 68 159 73 -42 76 hintmask 11100100
          128 282 rmoveto
          3 16 16 1 15 hhcurveto
          89 70 -43 -94 -72 -44 -68 -83 -48 callgsubr
          68 -55 67 -109 13 hvcurveto
          hintmask 11011000
          84 25 46 63 59 vvcurveto
          81 -82 43 -78 -72 -68 -36 -80 -29 12 -26 24 18 18 5 10 11 vhcurveto
          -9 19 -6 23 19 vvcurveto
          42 27 31 45 55 32 -48 -54 -62 -43 -67 -92 -17 vhcurveto
          -43 -8 rlineto
          endchar
        </CharString>
        <CharString name="threequarters">
          -2 callsubr
          93 20 354 -20 89 -20 hstemhm
          204 53 -33 59 330 57 hintmask 0111100110000000
          97 -72 callsubr
          hintmask 0111101010000000
          -70 callgsubr
          519 -373 rmoveto
          -94 callsubr
          -40 -18 166 18 -41 -102 callsubr
          56 55 24 -55 246 -48 vlineto
          -172 -270 rlineto
          163 hlineto
          -116 24 rmoveto
          116 182 rlineto
          -182 vlineto
          hintmask 1000010000000000
          -333 -186 -78 callsubr
        </CharString>
        <CharString name="threesuperior">
          -210 205 20 354 -20 hstemhm
          183 53 -33 59 hintmask 11010000
          76 -72 callsubr
          hintmask 11100000
          -70 callgsubr
          endchar
        </CharString>
        <CharString name="tilde">
          -224 519 -21 45 61 hstem
          263 624 -63 callsubr
        </CharString>
        <CharString name="trademark">
          176 334 -21 317 -20 26 -20 hstemhm
          129 52 385 52 hintmask 10111000
          230 327 rmoveto
          -35 -102 callsubr
          272 60 vlineto
          7 6 -3 -11 1 hvcurveto
          7 -59 rlineto
          14 27 hlineto
          25 1 31 3 13 vhcurveto
          hintmask 11011000
          -3 -14 -27 -3 -27 hhcurveto
          -113 hlineto
          hintmask 10111000
          -27 -29 3 3 -13 hvcurveto
          3 -13 1 -31 -25 vvcurveto
          -27 14 vlineto
          7 59 rlineto
          11 1 6 3 7 hhcurveto
          60 -272 hlineto
          -94 callsubr
          -35 -14 150 hlineto
          388 289 rmoveto
          -27 callgsubr
          16 hlineto
          hintmask 11011000
          14 -74 vlineto
          -30 -79 -38 -91 -30 -80 -105 250 rcurveline
          -74 hlineto
          hintmask 10111000
          -14 16 vlineto
          8 6 -6 -8 hvcurveto
          -261 -1 callsubr
          81 14 -16 -102 callsubr
          211 vlineto
          99 -239 rlineto
          27 hlineto
          92 239 rlineto
          -211 -1 callsubr
          112 14 -16 -102 callsubr
          endchar
        </CharString>
        <CharString name="two">
          0 63 -51 -21 566 22 hstemhm
          60 69 190 78 hintmask 10111000
          222 557 rmoveto
          62 35 -47 -76 -48 -15 -73 -57 -63 hvcurveto
          -227 -250 rlineto
          285 hlineto
          hintmask 01111000
          58 38 -4 -5 19 hvcurveto
          -4 18 -6 58 57 vvcurveto
          48 -23 vlineto
          -13 -87 rlineto
          hintmask 10111000
          -18 -3 -9 -4 -16 hhcurveto
          -230 hlineto
          149 161 rlineto
          61 67 71 63 93 vvcurveto
          66 -57 66 -122 -111 -47 -59 -66 -30 11 -25 25 21 17 8 7 8 vhcurveto
          -9 19 -4 22 20 vvcurveto
          45 31 37 62 vhcurveto
          endchar
        </CharString>
        <CharString name="twosuperior">
          -210 213 45 -32 -21 374 -20 hstemhm
          198 55 hintmask 10110000
          140 560 -34 callsubr
          hintmask 01110000
          -32 callsubr
          hintmask 10110000
          -71 callsubr
          endchar
        </CharString>
        <CharString name="u">
          16 -12 -45 callsubr
          hstemhm
          81 72 202 72 hintmask 10011100
          427 438 rmoveto
          hintmask 10101100
          -85 callsubr
          hintmask 10011100
          311 vlineto
          hintmask 10101100
          -88 callgsubr
          hintmask 01011100
          -80 callsubr
          endchar
        </CharString>
        <CharString name="uacute">
          16 -12 -45 callsubr
          71 -21 180 -105 callsubr
          -216 448 rmoveto
          -84 callsubr
          endchar
        </CharString>
        <CharString name="ucircumflex">
          16 155 0 117 195 endchar
        </CharString>
        <CharString name="udieresis">
          16 -12 -45 callsubr
          132 -21 94 -105 callsubr
          -302 544 rmoveto
          -93 callsubr
        </CharString>
        <CharString name="ugrave">
          16 -12 -45 callsubr
          71 -21 180 -105 callsubr
          -193 582 -99 callgsubr
        </CharString>
        <CharString name="underscore">
          -96 -51 39 hstem
          30 -51 rmoveto
          346 39 -346 hlineto
          endchar
        </CharString>
        <CharString name="v">
          -95 -16 callsubr
          hstem
          290 432 -83 callsubr
          149 -400 rlineto
          27 hlineto
          149 400 -64 callgsubr
        </CharString>
        <CharString name="w">
          84 -16 callsubr
          hstem
          469 432 -15 callsubr
          -93 -305 -99 305 rlineto
          -30 hlineto
          -99 -307 -90 307 rlineto
          50 18 -169 2 callsubr
          8 4 -6 -8 2 hvcurveto
          124 -400 rlineto
          27 hlineto
          101 309 101 -309 rlineto
          27 hlineto
          124 400 -64 callgsubr
        </CharString>
        <CharString name="x">
          -72 -13 callgsubr
          286 432 -15 callsubr
          -103 -156 rlineto
          hintmask 01010000
          -105 180 rlineto
          hintmask 01100000
          -3 -12 -24 -3 -36 hhcurveto
          -47 -18 41 hlineto
          8 3 -3 -5 3 hvcurveto
          115 -197 -120 -181 rlineto
          -10 -7 -1 0 -10 hhcurveto
          -37 -18 134 18 -51 hlineto
          108 164 rlineto
          hintmask 10010000
          110 -188 rlineto
          hintmask 01100000
          -26 callsubr
          -120 205 115 173 rlineto
          10 7 1 0 10 hhcurveto
          37 4 callgsubr
        </CharString>
        <CharString name="y">
          -95 -207 -21 660 -20 hstem
          290 432 -96 callgsubr
        </CharString>
        <CharString name="yacute">
          -95 -207 -21 660 -54 callsubr
          hintmask 00110000
          176 480 rmoveto
          -84 callsubr
          hintmask 11000000
          43 -182 -96 callgsubr
        </CharString>
        <CharString name="ydieresis">
          -95 -207 -21 660 -20 138 -21 94 -20 hstemhm
          hintmask 00110000
          93 576 rmoveto
          -91 callgsubr
          hintmask 11000000
          23 -144 -96 callgsubr
        </CharString>
        <CharString name="yen">
          21 -21 246 30 36 30 224 -20 hstem
          200 76 vstem
          425 276 rmoveto
          -119 hlineto
          16 36 rlineto
          103 30 -90 hlineto
          85 192 rlineto
          8 3 5 6 11 hhcurveto
          17 18 -101 -18 35 hlineto
          -128 -292 rlineto
          -5 hlineto
          -139 292 rlineto
          35 18 -146 -18 17 -28 callgsubr
          93 -192 rlineto
          -85 -30 99 hlineto
          18 -36 rlineto
          -117 -30 131 hlineto
          18 -36 rlineto
          -178 vlineto
          -94 callsubr
          -75 -18 254 18 -75 -102 callsubr
          176 vlineto
          17 38 rlineto
          132 hlineto
          endchar
        </CharString>
        <CharString name="z">
          -97 -13 callgsubr
          111 18 rmoveto
          253 396 rlineto
          18 -243 vlineto
          hintmask 01010000
          -36 -24 3 3 -12 hvcurveto
          3 -12 3 -36 -36 vvcurveto
          -50 18 vlineto
          15 96 rlineto
          11 2 6 3 10 hhcurveto
          177 hlineto
          -253 -396 rlineto
          -18 263 vlineto
          hintmask 10100000
          36 24 -3 -3 12 hvcurveto
          -3 12 -3 36 36 vvcurveto
          50 -18 vlineto
          -15 -96 rlineto
          -11 -2 -6 -3 -10 hhcurveto
          endchar
        </CharString>
        <CharString name="zcaron">
          -97 104 0 122 207 endchar
        </CharString>
        <CharString name="zero">
          -12 21 548 22 hstem
          24 77 261 77 vstem
          24 283 rmoveto
          -188 87 -107 120 120 88 107 188 189 -88 107 -120 -120 -87 -107 -189 vhcurveto
          77 hmoveto
          174 60 100 70 70 61 -100 -174 -174 -61 -100 -70 -70 -60 100 174 vhcurveto
          endchar
        </CharString>
      <CharString index="0">
        rmoveto
        -111 -98 callsubr
        hvcurveto
        7 273 vlineto
        -69 callsubr
        vhcurveto
        -7 -24 rmoveto
        56 31 -45 -78 -17 -2 -20 -2 -17 hvcurveto
        -201 hlineto
        100 3 46 77 69 hhcurveto
        return
      </CharString>
      <CharString index="1">
        242 444 -107 callgsubr
        return
      </CharString>
      <CharString index="2">
        -26 -12 -30 -35 -31 vhcurveto
        11 -14 rlineto
        67 37 42 76 52 vvcurveto
        34 -16 26 -39 -30 -23 -26 -31 -1 vhcurveto
        20 -14 16 -24 -29 vvcurveto
        return
      </CharString>
      <CharString index="3">
        35 315 rmoveto
        -208 121 -119 165 166 121 119 208 -104 callsubr
        return
      </CharString>
      <CharString index="4">
        -26 21 -21 26 26 21 21 26 26 -21 21 -26 -26 -21 -21 -26 vhcurveto
        return
      </CharString>
      <CharString index="5">
        -5 callgsubr
        206 69 hintmask 11100110
        -106 callgsubr
        hintmask 00011000
        return
      </CharString>
      <CharString index="6">
        211 420 rmoveto
        59 17 -49 -68 hvcurveto
        -72 -1 -3 -4 vvcurveto
        1 -9 -24 4 -31 hhcurveto
        -125 -57 -68 -64 -62 39 -47 74 51 59 34 98 24 hvcurveto
        -18 -89 callsubr
        205 vlineto
        102 -43 62 -96 vhcurveto
        return
      </CharString>
      <CharString index="7">
        hhcurveto
        -49 -103 callsubr
        return
      </CharString>
      <CharString index="8">
        rmoveto
        29 -15 -12 5 -16 hhcurveto
        -16 -20 -13 -33 hvcurveto
        134 -134 16 12 rlineto
        endchar
      </CharString>
      <CharString index="9">
        15 -54 callgsubr
        68 -68 callsubr
        96 82 hintmask 10110001
        35 2 callgsubr
        hintmask 01110001
        -93 callgsubr
        hintmask 10110001
        -92 callsubr
        hintmask 10101001
        -19 callsubr
        hintmask 10110001
        -71 callgsubr
        hintmask 00000110
        return
      </CharString>
      <CharString index="10">
        rmoveto
        59 23 26 32 28 13 -21 -22 -19 -6 -22 -9 -18 vhcurveto
        -10 12 -36 callgsubr
        39 -24 47 -76 -65 -60 -64 -164 -9 hvcurveto
        -62 -79 callgsubr
        214 18 -65 hlineto
        -8 -8 5 7 hvcurveto
        384 100 18 -100 vlineto
        return
      </CharString>
      <CharString index="11">
        -83 callsubr
        148 -397 -17 -46 -25 -69 -41 -36 -58 -25 rlinecurve
        -26 4 24 -29 21 hhcurveto
        39 26 83 82 31 hvcurveto
        173 463 -64 callgsubr
      </CharString>
      <CharString index="12">
        18 -47 -102 callsubr
        return
      </CharString>
      <CharString index="13">
        -31 25 -25 31 31 25 25 31 31 -25 25 -31 -31 -25 -25 -31 vhcurveto
        return
      </CharString>
      <CharString index="14">
        56 37 -4 -5 18 hvcurveto
        -4 18 -5 56 55 vvcurveto
        47 -23 vlineto
        -15 -3 callgsubr
        return
      </CharString>
      <CharString index="15">
        -94 callsubr
        -47 return
      </CharString>
      <CharString index="16">
        -103 callgsubr
        174 hmoveto
        -103 callgsubr
        return
      </CharString>
      <CharString index="17">
        -41 callgsubr
        45 -21 180 -102 callgsubr
        return
      </CharString>
      <CharString index="18">
        170 271 rmoveto
        -39 15 -16 27 27 vvcurveto
        39 34 38 51 47 38 -20 -52 6 vhcurveto
        7 -52 rlineto
        18 40 hlineto
        36 3 36 3 12 vhcurveto
        6 -16 -43 21 -63 hhcurveto
        -91 -50 -69 -65 -44 23 -42 48 -18 hvcurveto
        104 -39 rlineto
        40 -15 17 -27 -26 vvcurveto
        -44 -41 -43 -59 -53 -45 18 57 -7 vhcurveto
        -7 52 rlineto
        -18 -40 hlineto
        -52 callgsubr
        -3 -12 vhcurveto
        -11 26 42 -16 68 hhcurveto
        103 56 71 67 44 -25 43 -51 19 hvcurveto
        return
      </CharString>
      <CharString index="19">
        -107 callsubr
        -260 vlineto
        -111 63 -41 61 59 64 29 112 27 vhcurveto
        -135 vlineto
        return
      </CharString>
      <CharString index="20">
        141 -12 26 602 26 45 -68 callsubr
        -17 callgsubr
        hintmask 11001100
        -104 callgsubr
        hintmask 00110000
        return
      </CharString>
      <CharString index="21">
        rmoveto
        -90 callsubr
        return
      </CharString>
      <CharString index="22">
        201 hlineto
        -74 callgsubr
        rlineto
        -8 -28 callsubr
        -201 return
      </CharString>
      <CharString index="23">
        71 66 43 85 17 hvcurveto
        -19 4 rlineto
        -70 -17 -49 -38 -70 hhcurveto
        return
      </CharString>
      <CharString index="24">
        26 -22 22 -26 -26 -22 -22 -26 -26 22 -22 26 26 22 22 26 vhcurveto
        return
      </CharString>
      <CharString index="25">
        -97 callsubr
        568 vlineto
        -55 callsubr
        return
      </CharString>
      <CharString index="26">
        47 -77 callsubr
        return
      </CharString>
      <CharString index="27">
        -98 -50 -53 -70 -24 10 -19 21 17 18 5 10 11 hvcurveto
        -5 14 -3 15 16 vvcurveto
        49 25 33 45 return
      </CharString>
      <CharString index="28">
        -103 callsubr
        -368 vlineto
        -90 callsubr
        return
      </CharString>
      <CharString index="29">
        vstem
        30 418 rmoveto
        -133 109 -109 133 133 109 109 133 133 -109 109 -133 -133 -109 -109 -133 vhcurveto
        25 hmoveto
        119 98 98 119 119 98 -98 -119 -119 -98 -98 -119 -119 -98 98 119 vhcurveto
        return
      </CharString>
      <CharString index="30">
        -75 callsubr
        -18 return
      </CharString>
      <CharString index="31">
        rmoveto
        17 13 8 26 12 hvcurveto
        61 134 -16 12 -87 -115 -89 115 -16 -12 61 -134 rlineto
        -26 12 15 -8 17 hhcurveto
        endchar
      </CharString>
      <CharString index="32">
        -228 21 -21 630 -54 callsubr
        96 82 hintmask 11001000
        96 32 -86 callgsubr
        204 18 -47 hlineto
        -82 callgsubr
        7 7 -5 -7 hvcurveto
        hintmask 00110000
        return
      </CharString>
      <CharString index="33">
        8 3 callsubr
        -72 callgsubr
        return
      </CharString>
      <CharString index="34">
        -74 callsubr
        18 return
      </CharString>
      <CharString index="35">
        1 hvcurveto
        5 -62 rlineto
        18 180 -18 hlineto
        -5 -62 return
      </CharString>
      <CharString index="36">
        -44 callsubr
        -317 -58 callgsubr
        return
      </CharString>
      <CharString index="37">
        45 19 23 38 34 vvcurveto
        52 -50 28 -51 -47 -46 -23 -52 -20 9 -18 20 13 14 5 8 8 vhcurveto
        -5 12 -4 14 12 vvcurveto
        24 14 19 24 31 17 -29 -32 -36 -26 -40 -56 -12 vhcurveto
        -28 -6 rlineto
        return
      </CharString>
      <CharString index="38">
        -29 -71 vhcurveto
        -275 -40 callsubr
        -33 -18 180 0 callsubr
        endchar
      </CharString>
      <CharString index="39">
        -184 -86 callgsubr
        214 18 -67 -102 callsubr
        199 vlineto
        -18 30 34 -9 36 hhcurveto
        -55 callgsubr
        return
      </CharString>
      <CharString index="40">
        -38 -24 33 38 48 31 63 118 10 8 0 -1 10 hvcurveto
        -120 -9 -53 -61 -53 hhcurveto
        return
      </CharString>
      <CharString index="41">
        -50 callgsubr
        -199 572 hlineto
        7 7 5 7 vhcurveto
        47 18 -204 -58 callgsubr
        endchar
      </CharString>
      <CharString index="42">
        -21 180 -20 return
      </CharString>
      <CharString index="43">
        rlineto
        8 3 3 6 8 hhcurveto
        37 4 callgsubr
      </CharString>
      <CharString index="44">
        248 -12 rmoveto
        132 77 86 89 63 -38 64 -83 37 hvcurveto
        -120 53 rlineto
        -61 27 -28 48 48 vvcurveto
        56 42 54 80 76 66 -41 -109 11 vhcurveto
        18 hlineto
        return
      </CharString>
      <CharString index="45">
        rmoveto
        160 -171 16 14 -94 163 94 163 -16 14 -160 -171 rlineto
        return
      </CharString>
      <CharString index="46">
        17 80 20 86 8 vvcurveto
        34 -20 16 -25 -26 -20 -17 -33 -8 20 -86 17 -80 vhcurveto
        return
      </CharString>
      <CharString index="47">
        hlineto
        16 10 -4 -18 2 hvcurveto
        15 return
      </CharString>
      <CharString index="48">
        -19 -3 rlineto
        2 -10 1 -9 -9 vvcurveto
        return
      </CharString>
      <CharString index="49">
        -18 -81 callgsubr
        -568 vlineto
        -9 -15 callgsubr
        -47 hlineto
        return
      </CharString>
      <CharString index="50">
        -66 callsubr
        hvcurveto
        94 42 47 24 hhcurveto
        9 6 -6 -15 1 hvcurveto
        return
      </CharString>
      <CharString index="51">
        160 54 78 66 47 35 -69 callgsubr
      </CharString>
      <CharString index="52">
        114 83 83 145 142 -80 86 -79 -57 -57 -45 -101 -24 hvcurveto
        return
      </CharString>
      <CharString index="53">
        -23 callsubr
        310 -6 callgsubr
        return
      </CharString>
      <CharString index="54">
        -21 432 -20 return
      </CharString>
      <CharString index="55">
        -36 -3 -36 return
      </CharString>
      <CharString index="56">
        -109 -13 -77 -41 -88 hhcurveto
        -46 callsubr
        -25 callgsubr
        return
      </CharString>
      <CharString index="57">
        -18 -2 -10 -4 -16 hhcurveto
        return
      </CharString>
      <CharString index="58">
        rmoveto
        250 722 rlineto
        return
      </CharString>
      <CharString index="59">
        -57 -27 37 46 19 4 23 9 18 hvcurveto
        8 -8 -18 8 -20 hhcurveto
        -25 -11 -26 -30 -66 47 -58 106 135 68 85 87 return
      </CharString>
      <CharString index="60">
        29 49 11 -1 11 -3 11 return
      </CharString>
      <CharString index="61">
        -60 callgsubr
        -3 callgsubr
        23 47 hlineto
        return
      </CharString>
      <CharString index="62">
        -6 -11 hhcurveto
        -37 -18 151 18 -65 hlineto
        return
      </CharString>
      <CharString index="63">
        -43 callgsubr
        hstem
        return
      </CharString>
      <CharString index="64">
        21 -35 callsubr
        return
      </CharString>
      <CharString index="65">
        -53 -21 66 20 193 20 354 -20 89 -20 hstemhm
        41 60 150 60 157 60 150 60 return
      </CharString>
      <CharString index="66">
        -61 -12 24 211 20 177 24 return
      </CharString>
      <CharString index="67">
        30 -79 53 135 -21 161 57 45 -21 175 -20 226 -20 hstemhm
        hintmask 00110100
        hintmask 01001000
        return
      </CharString>
      <CharString index="68">
        rlineto
        -10 41 43 -14 21 -24 callgsubr
        -25 -34 -18 -10 -70 hvcurveto
        return
      </CharString>
      <CharString index="69">
        576 rmoveto
        -103 callgsubr
        return
      </CharString>
      <CharString index="70">
        rmoveto
        49 49 -65 -125 -133 -55 -70 -74 return
      </CharString>
      <CharString index="71">
        18 -5 17 hhcurveto
        24 11 25 29 return
      </CharString>
      <CharString index="72">
        -21 225 -20 hstem
        return
      </CharString>
      <CharString index="73">
        18 23 24 7 29 hhcurveto
        hintmask 10010010
        55 62 -25 60 hhcurveto
        36 37 11 35 31 hvcurveto
        return
      </CharString>
      <CharString index="74">
        -56 -37 4 5 -18 hvcurveto
        4 -18 5 -56 -55 vvcurveto
        -47 23 vlineto
        15 117 rlineto
        return
      </CharString>
      <CharString index="75">
        -94 callgsubr
        endchar
      </CharString>
      <CharString index="76">
        -86 callgsubr
        194 0 callsubr
        return
      </CharString>
      <CharString index="77">
        21 -21 405 39 -12 -20 hstemhm
        106 72 return
      </CharString>
      <CharString index="78">
        -55 callsubr
        7 7 -5 -7 hvcurveto
        return
      </CharString>
      <CharString index="79">
        hlineto
        11 4 -6 -8 4 hvcurveto
        return
      </CharString>
      <CharString index="80">
        8 6 6 8 vhcurveto
        return
      </CharString>
      <CharString index="81">
        -56 -61 25 -60 hhcurveto
        -37 -36 -11 -33 -30 hvcurveto
        hintmask 10010010
        23 -35 rlineto
        return
      </CharString>
      <CharString index="82">
        88 77 -41 -109 13 hvcurveto
        18 hlineto
        return
      </CharString>
      <CharString index="83">
        hhcurveto
        24 13 15 20 20 -13 15 -24 return
      </CharString>
      <CharString index="84">
        hhcurveto
        -24 -13 -15 -20 -20 13 -15 24 return
      </CharString>
      <CharString index="85">
        292 rmoveto
        111 -63 41 -61 -60 -63 -29 -113 -27 vhcurveto
        return
      </CharString>
      <CharString index="86">
        rlineto
        50 18 -190 2 callsubr
        11 5 -14 callgsubr
        return
      </CharString>
      <CharString index="87">
        -183 -53 -21 722 -20 hstem
        return
      </CharString>
      <CharString index="88">
        -21 112 -16 callgsubr
        return
      </CharString>
      <CharString index="89">
        75 -21 354 -20 hstem
        return
      </CharString>
      <CharString index="90">
        35 85 403 85 return
      </CharString>
      <CharString index="91">
        -20 hstem
        40 112 return
      </CharString>
      <CharString index="92">
        -7 -5 -7 vhcurveto
        return
      </CharString>
      <CharString index="93">
        -6 -8 3 hvcurveto
        return
      </CharString>
      <CharString index="94">
        15 -21 27 -51 callsubr
        hstemhm
        hintmask 01100000
        return
      </CharString>
      <CharString index="95">
        -266 -86 -21 737 -20 hstem
        82 72 vstem
        82 return
      </CharString>
      <CharString index="96">
        -20 hstemhm
        81 -10 callgsubr
        return
      </CharString>
      <CharString index="97">
        72 202 72 return
      </CharString>
      <CharString index="98">
        hlineto
        78 267 rlineto
        -33 hlineto
        -78 -267 rlineto
        return
      </CharString>
      <CharString index="99">
        -7 8 18 -8 20 hhcurveto
        25 11 25 30 return
      </CharString>
      <CharString index="100">
        vlineto
        108 94 69 121 121 -94 return
      </CharString>
      <CharString index="101">
        28 273 28 9 -20 return
      </CharString>
      <CharString index="102">
        -20 hstemhm
        40 76 return
      </CharString>
      <CharString index="103">
        55 22 -39 -44 -18 -5 -18 -9 -18 return
      </CharString>
      <CharString index="104">
        -117 rlineto
        return
      </CharString>
      <CharString index="105">
        499 hmoveto
        19 167 -18 hlineto
        return
      </CharString>
      <CharString index="106">
        vlineto
        -11 callsubr
        return
      </CharString>
      <CharString index="107">
        30 109 -21 417 -20 hstem
        return
      </CharString>
      <CharString index="108">
        186 -20 44 -20 return
      </CharString>
      <CharString index="109">
        hmoveto
        331 hlineto
        return
      </CharString>
      <CharString index="110">
        18 -47 hlineto
        return
      </CharString>
      <CharString index="111">
        18 hlineto
        endchar
      </CharString>
</ttFont>
